<?xml version="1.0" encoding="utf-8"?>
<!-- Generator: splinewriter -->
<!DOCTYPE svg PUBLIC "-//W3C//DTD SVG 1.1//EN" "http://www.w3.org/Graphics/SVG/1.1/DTD/svg11.dtd">
<svg version="1.1" xmlns="http://www.w3.org/2000/svg" xmlns:xlink="http://www.w3.org/1999/xlink" x="0px" y="0px" width="179.41236363636364px" height="226.23418181818184px" viewBox="0 0 179.41236363636364 226.23418181818184" enable-background="new 0 0 179.41236363636364 226.23418181818184" xml:space="preserve">
<g id="Ebene_1">
<polyline fill="none" stroke="#000000" points="120.122,125.218 124.619,131.214 126.618,133.213 127.616,135.712 129.12,137.71 131.115,140.706" />
<polyline fill="none" stroke="#000000" points="128.884,143.636 132.814,140.311 132.512,140.311" />
<polyline fill="none" stroke="#000000" points="131.005,147.266 134.938,143.636 136.45,141.821 136.756,141.518" />
<polyline fill="none" stroke="#000000" points="113.76,86.155 115.572,89.783 119.808,99.165 121.018,101.28 121.922,103.7 122.53,106.123 122.833,108.544 123.438,112.779" />
<polyline fill="none" stroke="#000000" points="121.32,112.171 124.951,114.894 127.066,116.107 128.884,117.617 130.397,119.435 131.607,121.553 132.212,123.973 134.33,133.652 134.938,136.072 135.842,138.495 136.45,140.916 137.053,141.518" />
<polyline fill="none" stroke="#000000" points="120.712,138.193 124.651,140.916 129.794,145.757 131.307,147.569 132.212,149.992 132.212,152.41 131.005,154.528 130.091,156.951 128.578,158.763 126.766,159.973" />
<polyline fill="none" stroke="#000000" points="124.951,155.438 121.32,159.066 118.903,160.279 117.085,161.792 117.085,164.209 119.505,164.512 121.922,164.209 124.043,163.002 125.861,161.489 127.368,159.671 127.368,159.066" />
<polyline fill="none" stroke="#000000" points="121.62,148.477 117.989,152.11 115.572,152.712 113.152,153.62 110.731,154.833 110.126,157.253 111.031,159.671 113.454,160.279 115.874,159.671 117.687,158.158 121.018,154.833 123.741,152.11" />
<polyline fill="none" stroke="#000000" points="120.416,142.426 116.477,142.728 114.062,143.031 111.639,143.636 109.221,144.546 107.403,146.059 106.496,148.477 106.193,150.9 108.616,151.202 111.031,150.295 112.849,148.779 117.387,146.362 119.808,146.362 121.32,145.757" />
<polyline fill="none" stroke="#000000" points="120.712,138.495 116.782,137.285 114.362,137.285 111.941,136.98 109.524,137.285 107.098,138.193 105.585,140.008 106.193,142.426 108.616,143.333 111.031,143.333 113.454,143.636 113.76,143.636" />
<polyline fill="none" stroke="#000000" points="119.706,146.644 120.898,149.92 120.898,150.216" />
<polyline fill="none" stroke="#000000" points="122.981,153.195 124.468,156.768 124.77,157.364" />
<polyline fill="none" stroke="#000000" points="58.661,95.723 58.661,99.296 58.365,101.678 58.365,104.061 58.661,106.146" />
<polyline fill="none" stroke="#000000" points="57.765,107.04 61.64,107.04 67.298,107.04" />
<polyline fill="none" stroke="#000000" points="66.696,98.702 67.592,102.274 67.892,104.657 68.785,109.422" />
<polyline fill="none" stroke="#000000" points="69.082,110.015 73.256,109.422 78.612,108.229" />
<polyline fill="none" stroke="#000000" points="79.805,108.529 77.719,104.954 75.933,100.488 74.437,96.913" />
<polyline fill="none" stroke="#000000" points="39.304,83.813 42.283,87.386 46.155,90.362 50.621,92.448 52.706,93.637 55.092,94.234 57.472,95.127 59.854,95.723 64.616,96.616 83.671,98.702 93.201,98.402 96.183,98.106" />
<polyline fill="none" stroke="#000000" points="97.073,97.809 93.201,100.785 86.653,104.061 80.997,106.146" />
<polyline fill="none" stroke="#000000" points="97.073,94.83 100.651,96.616 101.242,96.616" />
<polyline fill="none" stroke="#000000" points="101.242,96.616 97.672,99.892 97.073,100.785" />
<polyline fill="none" stroke="#000000" points="75.933,109.122 80.101,109.422 84.861,108.826 92.014,106.74 94.394,105.55 104.814,99.296 106.606,97.509 111.368,91.851 113.454,87.386 115.537,82.621 116.13,80.238 116.433,77.856 117.026,75.473 117.922,73.09 118.216,70.711 118.216,68.328 118.516,65.946" />
<polyline fill="none" stroke="#000000" points="115.572,38.958 119.2,35.325 124.651,30.487 127.066,29.579 131.909,28.366 134.33,28.366 136.756,28.971 139.168,29.879 141.288,31.089 142.801,32.904 145.221,37.14 145.221,39.56 145.829,41.981 145.524,44.404 144.916,46.824 143.709,48.939 140.983,52.875 136.148,58.016 131.909,60.738 125.256,64.069 122.833,64.674 120.416,64.977 117.989,65.579 117.387,65.882" />
<polyline fill="none" stroke="#000000" points="120.416,48.939 122.228,45.006 123.741,42.891 128.578,37.445 131.005,36.837 135.842,36.535 137.957,37.748 139.168,39.863 139.47,42.283 139.47,44.704 138.565,46.519" />
<polyline fill="none" stroke="#000000" points="89.553,39.863 92.878,35.933 94.996,34.722 97.416,33.812 99.84,33.512 104.68,33.21 107.098,33.512 111.639,35.025 113.454,36.535 114.97,38.35 117.387,42.586 117.989,45.006 118.295,47.426 118.597,52.267 117.989,54.688 115.874,58.926 110.429,63.767 108.011,64.372 105.585,64.674 103.165,64.674 98.33,64.372 95.906,63.461 94.091,61.952 88.948,57.108 87.738,54.99 87.13,52.57 86.833,47.729 87.438,42.891 88.343,40.468 88.948,39.56" />
<polyline fill="none" stroke="#000000" points="95.298,23.831 99.234,23.223 101.655,23.223 106.496,23.831 108.916,24.133 111.336,23.831 111.031,21.408 109.221,19.898 106.798,18.685 104.384,18.08 101.949,17.777 97.117,17.777 94.696,18.685 93.184,20.5 93.184,22.92 95.298,24.133 96.512,24.433" />
<polyline fill="none" stroke="#000000" points="90.455,38.656 86.525,39.56 81.69,40.77 77.451,43.191 75.333,44.404 72.308,45.914" />
<polyline fill="none" stroke="#000000" points="77.451,44.704 72.61,45.914 67.77,47.127 65.346,48.337 52.637,55.901 42.958,63.159" />
<polyline fill="none" stroke="#000000" points="48.404,67.095 43.872,64.069 41.448,63.159 39.028,62.554 36.608,62.554 31.77,62.856 29.346,63.767 27.231,64.977 25.413,66.49 22.693,70.722 22.391,73.146 22.693,75.566 23.598,77.986 24.808,80.104 26.321,81.917 28.439,83.13 33.282,85.245 35.7,85.55 38.123,85.245 42.958,83.735 46.891,81.012 48.404,79.194 49.92,77.381" />
<polyline fill="none" stroke="#000000" points="78.056,42.283 76.846,38.656 75.333,36.837 73.515,35.325 69.579,32.602 64.744,30.789 62.324,30.487 59.906,30.789 57.48,31.694 55.365,32.904 53.553,34.417 50.222,38.048 49.312,40.468 48.706,42.891 48.101,47.729 48.101,50.152 49.312,52.57 51.432,56.506" />
<polyline fill="none" stroke="#000000" points="56.273,22.013 60.203,21.108 62.626,21.108 67.467,21.71 69.885,22.013 72.308,21.108 71.095,18.987 69.277,17.474 67.165,16.264 64.744,15.662 62.324,15.357 59.906,15.357 55.06,16.264 53.553,18.08 53.242,20.5 55.06,22.013 56.576,22.318" />
<polyline fill="none" stroke="#000000" points="79.264,41.681 78.359,35.627 77.451,30.789 78.056,28.366 79.569,26.554 81.986,25.946 84.407,25.643 86.833,26.248 88.645,27.764 90.155,29.579 91.06,32 92.273,36.235" />
<polyline fill="none" stroke="#000000" points="75.633,109.751 77.149,113.384 77.149,115.805 76.846,123.063 76.238,125.483 75.333,127.906 74.12,130.024 72.61,132.142 67.77,137.588 57.181,147.569 46.891,161.489 45.381,163.604 44.168,166.027 42.053,170.562 40.843,172.683 40.238,175.101 39.33,177.524 38.728,179.941 36.91,184.782 34.187,189.021 33.582,189.626" />
<polyline fill="none" stroke="#000000" points="48.101,200.215 44.474,196.584 41.14,193.256 39.028,192.043 29.952,187.202 27.837,185.69 19.06,180.546 14.213,178.734 9.375,177.826 6.958,177.221 4.535,177.524 2.722,179.037 1.21,180.849 0.302,183.272 0,185.69 0.605,188.113 1.815,190.53 3.627,192.346 7.563,195.072 18.757,200.82 20.878,202.03 23.296,202.935 33.282,206.266 38.123,207.173 40.541,207.776 42.958,207.776 45.381,207.173 46.891,205.358 47.802,202.935 47.802,200.517 46.891,200.517" />
<polyline fill="none" stroke="#000000" points="149.76,198.4 148.247,202.03 145.829,203.237 143.403,203.845 138.565,204.753 136.45,205.963 135.24,208.078 134.938,210.501 135.54,212.922 136.45,215.342 138.868,219.575 140.078,221.696 141.896,223.208 144.011,224.416 146.432,225.323 148.849,225.931 151.272,226.234 153.693,226.234 158.539,225.323 160.349,223.511 162.766,219.272 163.377,216.855 163.377,214.432 163.074,212.014 160.954,207.776 151.874,199.307 150.059,197.792 149.76,197.792" />
<polyline fill="none" stroke="#000000" points="48.101,201.425 52.034,198.4 54.455,197.489 59.598,195.677" />
<polyline fill="none" stroke="#000000" points="57.48,185.992 57.783,190.228 58.993,197.489 60.512,199.307 62.324,200.82 64.445,202.03 68.98,204.148 85.92,209.896 90.763,210.804 93.184,210.804 95.601,211.106 103.165,211.712 105.585,212.014 108.011,212.014 117.989,211.712 125.256,211.106 127.674,210.501 134.938,208.381 135.842,207.776" />
<polyline fill="none" stroke="#000000" points="133.422,161.489 137.355,163.301 139.168,165.117 143.709,170.865 144.613,173.288 145.221,175.706 147.342,185.387 147.342,187.81 147.648,195.072 148.247,199.912" />
<polyline fill="none" stroke="#000000" points="127.976,188.113 129.186,192.043 131.005,199.307 131.607,201.727 132.512,204.148 133.722,206.266 134.938,207.776" />
<polyline fill="none" stroke="#000000" points="132.814,144.849 135.24,148.174 137.957,152.41 143.709,163.906 144.916,171.17 144.314,177.826" />
<polyline fill="none" stroke="#000000" points="137.957,152.11 138.868,148.477 141.288,141.218 143.403,136.677 145.524,132.142 156.11,115.197 159.438,111.869 165.189,107.333 169.728,105.216 172.148,104.61 174.574,104.305 176.989,104.305 179.412,105.216 177.899,107.028 175.476,107.636 173.058,107.938 170.938,109.146 168.514,110.056 166.4,111.266 164.584,112.779 159.138,117.919 154.903,124.276 153.396,126.088 152.183,128.206 150.664,130.024 149.76,132.445 148.546,134.562 147.648,136.98 147.342,139.4 146.432,141.821 145.829,144.244 143.101,156.346 141.896,158.763 140.983,159.671" />
<polyline fill="none" stroke="#000000" points="77.149,115.502 72.913,117.617 70.49,117.919 68.372,119.133 63.837,120.948 61.416,121.856 59.598,122.76" />
<polyline fill="none" stroke="#000000" points="77.149,120.037 72.913,121.25 65.655,123.365 63.229,123.973 59.906,124.881" />
<polyline fill="none" stroke="#000000" points="52.945,119.435 48.706,116.41 46.289,116.107 44.168,117.314 43.264,119.738 43.264,122.158 44.776,123.973 47.197,124.578 49.312,123.365 50.827,122.461" />
<polyline fill="none" stroke="#000000" points="46.589,124.578 42.958,128.206 44.168,130.327 46.289,131.84 48.706,132.747 52.337,131.534 51.13,129.419 49.62,127.604 47.493,127.604" />
<polyline fill="none" stroke="#000000" points="44.474,130.629 46.289,134.257 47.802,136.072 49.62,137.588 52.034,137.89 53.85,136.375 52.337,134.562 50.525,133.05 49.92,133.05" />
<polyline fill="none" stroke="#000000" points="47.197,135.168 48.101,138.795 49.312,141.218 51.735,141.821 54.155,141.218 54.155,138.795 52.637,137.89" />
<polyline fill="none" stroke="#000000" points="53.553,119.738 57.783,123.365 61.114,126.696 61.114,129.117 59.598,130.929 57.48,132.445 55.06,133.05 51.735,133.954" />
<polyline fill="none" stroke="#000000" points="92.581,44.101 88.645,47.729 88.343,50.152 88.645,52.57 89.25,54.99 90.455,57.108 92.878,58.016 94.996,56.808 96.811,55.293 97.416,52.875 97.117,48.032 95.601,46.216 91.973,45.614 90.763,47.729 90.455,50.152 90.763,54.99 92.878,56.203 94.696,54.688 95.906,52.57 96.203,50.152 94.696,46.216 92.273,46.824 91.365,49.242 91.668,51.662 92.878,53.783 94.996,52.57 94.996,50.152 94.696,47.729 92.581,48.939 91.973,51.362 92.273,53.783 94.696,53.48 94.996,51.06 94.696,48.64 92.273,48.337 91.668,50.757 91.365,53.178 93.486,51.662 94.091,49.242 92.878,51.362 94.696,49.847 93.184,47.729 90.763,46.824 89.25,48.939 88.948,51.362 90.155,53.783 88.948,51.662 88.645,49.242 88.948,46.824 89.553,44.404 91.973,43.493 93.789,45.006 91.365,44.404 89.553,45.914 88.645,48.337 88.343,45.914 90.155,44.404 92.581,43.796 94.696,45.006 96.203,46.824 97.117,49.242 97.117,51.662 96.512,54.085 94.996,55.901 93.184,56.506" />
<polyline fill="none" stroke="#000000" points="54.455,40.77 50.222,43.191 49.62,45.614 49.92,48.032 50.827,50.455 52.337,52.57 54.763,53.178 56.878,51.662 57.783,49.242 58.385,46.824 58.385,44.404 56.878,42.283 55.06,40.77 52.637,41.073 51.13,42.891 50.827,45.309 51.13,47.729 52.337,49.847 54.763,50.455 55.97,48.337 56.273,45.914 55.06,43.796 52.637,43.191 52.034,45.614 51.735,48.032 52.337,50.455 54.455,51.662 55.97,49.847 56.273,47.426 55.668,42.283 53.242,43.191 52.637,45.914 52.637,48.64 52.945,51.06 54.763,52.57 55.668,49.847 55.365,46.824 53.553,45.914 53.242,48.337 53.85,50.757 55.668,49.242 55.668,46.519 54.455,44.404 53.553,47.426 53.85,49.847 55.668,51.662 57.181,49.544 56.273,47.127 55.668,49.544 57.48,48.032 57.783,45.614 57.48,47.426" />
<polyline fill="none" stroke="#000000" points="58.088,18.08 56.273,16.567 54.763,18.385 57.48,18.685 60.203,18.08 59.906,17.777 57.48,18.385 55.06,19.595 57.48,19.898 60.512,18.987 62.926,18.685 60.512,18.987 58.088,19.595 55.668,20.5 58.088,20.802 60.512,20.5 62.926,20.5 65.346,21.408 67.77,21.71 68.072,20.802 65.655,20.197 62.926,19.898 65.655,19.898 66.56,18.08 63.837,17.474 66.257,18.385 68.674,18.685 66.862,17.175 64.445,16.567 62.021,16.264 59.598,16.264 62.021,15.965 64.445,16.567 66.56,17.777 71.703,20.5" />
<polyline fill="none" stroke="#000000" points="110.429,23.831 106.193,22.92 103.776,22.621 96.512,22.318 98.629,21.108 101.047,20.802 103.776,20.802 106.193,21.408 107.098,20.197 104.68,19.595 102.26,19.595 99.84,19.29 97.416,19.29 94.996,19.595 97.416,18.987 99.84,18.685 102.26,18.987 107.098,20.5 104.384,19.898 98.932,19.29 96.512,19.595 94.091,20.5 95.298,22.621 95.906,22.013" />
<polyline fill="none" stroke="#000000" points="108.916,21.71 104.983,22.013 107.706,22.013 105.285,22.318 102.865,21.71 100.442,20.5 98.021,20.197 95.601,20.197 98.021,21.108 100.744,21.108 102.865,21.408" />
<polyline fill="none" stroke="#000000" points="56.273,17.474 60.512,17.474 62.926,18.385 67.77,19.898 70.19,20.802 71.095,21.108" />
<polyline fill="none" stroke="#000000" points="48.072,67.438 48.549,70.298 49.026,77.445 48.072,79.589 46.164,81.021 42.109,83.403 39.729,84.119 37.346,84.357 32.584,83.88 28.049,81.972 24.244,79.351 23.528,76.968 23.051,72.203 24.005,70.059 25.434,68.151 27.104,66.484 31.153,64.34 33.538,64.34 40.686,64.817 47.598,67.438 48.072,68.389" />
<polyline fill="none" stroke="#000000" points="47.598,69.344 44.497,67.438 42.109,66.961 32.584,65.768 30.437,66.722 28.532,68.151 26.868,69.821 24.721,73.87 24.721,76.253 25.672,78.4 27.581,79.828 29.248,81.498 31.392,82.449 33.777,82.926 38.542,82.926 40.686,81.972 45.21,80.305 46.882,78.638 48.072,77.207" />
<polyline fill="none" stroke="#000000" points="48.072,75.301 45.69,78.161 43.784,79.589 41.64,80.544 39.252,81.259 34.49,81.736 29.966,80.544 25.911,78.161 23.293,74.347 24.005,71.965 25.434,70.059 28.768,66.484 30.914,65.291 33.3,64.578 35.677,65.291 44.974,68.151 47.598,71.726 47.121,74.109 46.644,75.778" />
<polyline fill="none" stroke="#000000" points="45.928,70.059 46.402,73.157 46.164,75.54 44.974,77.684 43.069,79.112 40.928,80.305 38.542,80.544 33.777,80.544 31.392,79.828 29.248,78.638 25.672,75.778 26.391,73.393 27.339,71.249 28.768,69.344 30.679,67.912 33.061,67.2 35.447,66.961 37.829,67.438 44.497,70.059 44.974,72.442 44.497,77.207 44.256,77.445" />
<polyline fill="none" stroke="#000000" points="43.304,75.301 42.586,78.161 40.448,79.351 38.065,80.066 35.677,79.828 31.153,78.638 29.248,77.207 27.581,75.54 27.581,73.157 28.768,71.01 30.437,69.344 32.584,68.151 34.967,67.677 37.346,68.151 39.493,69.344 43.069,72.442 43.546,74.824 43.546,77.207 43.304,77.922" />
<polyline fill="none" stroke="#000000" points="41.64,73.157 42.109,76.017 41.163,78.161 39.019,79.351 36.634,79.351 32.107,78.161 30.679,76.253 29.486,74.109 30.437,71.726 32.107,70.059 34.013,68.628 36.395,68.628 41.163,69.344 43.069,71.01 43.069,73.393 41.876,75.54 39.97,76.968 37.829,77.922 35.447,78.4 33.061,77.684 32.343,77.684" />
<polyline fill="none" stroke="#000000" points="31.392,75.778 30.914,72.919 32.343,71.01 34.248,69.582 36.634,69.821 38.781,70.772 40.448,72.442 40.686,74.824 39.252,76.73 37.111,77.684 34.728,77.922 32.343,77.445 29.966,76.491 29.009,74.347 29.009,71.965 30.202,69.821 31.872,68.866" />
<polyline fill="none" stroke="#000000" points="33.061,72.203 36.395,70.536 38.781,71.01 39.729,73.157 38.781,75.301 36.634,76.491 34.248,76.73 33.061,74.586 33.061,72.919" />
<polyline fill="none" stroke="#000000" points="33.538,73.157 36.634,71.488 38.301,73.157 36.875,75.301 34.49,76.017 32.107,75.778 31.872,73.393 33.777,71.965 34.013,71.488" />
<polyline fill="none" stroke="#000000" points="36.395,72.919 33.3,75.778 35.447,74.347 37.588,73.393 38.542,72.919" />
<polyline fill="none" stroke="#000000" points="45.928,210.656 49.026,209.463 50.455,207.557 50.455,205.175 50.455,205.175" />
<polyline fill="none" stroke="#000000" points="53.792,212.561 57.364,209.94 57.844,207.796" />
<polyline fill="none" stroke="#000000" points="175.802,111.761 171.752,114.382 169.605,115.81 167.7,117.48 166.51,119.624 166.746,119.624" />
<polyline fill="none" stroke="#000000" points="165.559,102.466 160.549,104.61 158.402,106.519 156.977,108.424 156.736,108.663" />
<polyline fill="none" stroke="#000000" points="149.826,38.842 150.301,41.94 150.301,47.182 149.346,49.565 148.157,51.709 146.49,53.617 145.777,54.807" />
<polyline fill="none" stroke="#000000" points="123.138,73.87 123.138,76.968 122.903,79.351 122.184,81.736 121.23,83.88 120.997,86.263 120.273,87.217" />
<polyline fill="none" stroke="#000000" points="120.273,87.217 122.423,90.551 124.567,95.319 124.805,97.94 125.524,100.322 125.998,101.515" />
<polyline fill="none" stroke="#000000" points="114.321,19.301 115.985,22.161 115.985,24.544" />
<polyline fill="none" stroke="#000000" points="72.619,15.01 75.476,17.87 76.666,20.014 76.666,21.207" />
<polyline fill="none" stroke="#000000" points="49.984,113.666 53.553,115.336 54.507,115.81" />
<polyline fill="none" stroke="#000000" points="49.984,113.666 53.553,115.336 54.507,115.81" />
<polyline fill="none" stroke="#000000" points="49.984,113.666 53.553,115.336 54.507,115.81" />
</g>

</svg>