<?xml version="1.0" encoding="utf-8"?>
<!-- Generator: splinewriter -->
<!DOCTYPE svg PUBLIC "-//W3C//DTD SVG 1.1//EN" "http://www.w3.org/Graphics/SVG/1.1/DTD/svg11.dtd">
<svg version="1.1" xmlns="http://www.w3.org/2000/svg" xmlns:xlink="http://www.w3.org/1999/xlink" x="0px" y="0px" width="355.75563636363637px" height="326.6996363636364px" viewBox="0 0 355.75563636363637 326.6996363636364" enable-background="new 0 0 355.75563636363637 326.6996363636364" xml:space="preserve">
<g id="Ebene_1">
<polyline fill="none" stroke="#000000" points="206.487,135.546 210.03,129.056 210.618,125.515 211.799,121.975 213.57,118.437 215.93,115.488 218.877,113.125 222.42,111.357 225.96,110.766 233.041,110.766 236.578,112.538 239.531,114.897 242.478,117.847" />
<polyline fill="none" stroke="#000000" points="210.618,128.465 217.701,134.955 221.242,137.314 225.373,137.314 233.041,136.136 235.397,133.186 238.35,126.696 238.938,119.025 241.303,116.666" />
<polyline fill="none" stroke="#000000" points="212.977,120.797 214.752,127.874 217.701,130.827 221.242,132.005 224.779,132.596 228.32,132.005 231.266,129.646 233.631,126.696 234.81,123.156 235.397,119.616 234.219,116.075 231.86,113.125 228.32,111.357" />
<polyline fill="none" stroke="#000000" points="145.725,127.874 143.36,120.206 139.819,109.588 137.463,106.638 134.513,104.276 128.02,101.326 123.895,101.326 116.814,103.685 113.274,105.457 109.143,105.457 106.193,106.638" />
<polyline fill="none" stroke="#000000" points="142.184,125.515 133.922,130.237 129.794,130.237 126.251,129.646 119.17,127.874 116.814,124.925 115.045,121.387 114.452,117.847 114.452,113.716 113.861,105.457" />
<polyline fill="none" stroke="#000000" points="120.354,107.816 128.02,104.276 131.56,104.866 134.513,107.226 139.232,113.125 139.819,116.666 139.819,120.797 137.463,123.746 133.922,124.925 130.382,125.515 126.251,125.515 122.711,124.925 120.354,121.975 118.58,118.437 117.992,114.897 117.992,110.766 120.354,107.816 123.301,105.457 124.485,105.457" />
<polyline fill="none" stroke="#000000" points="171.68,234.661 170.501,241.742 171.092,245.282 173.448,248.232 176.398,250.592 179.941,251.773 187.022,253.541 191.156,253.541 198.821,252.951 207.08,250.592" />
<polyline fill="none" stroke="#000000" points="197.64,247.642 205.311,245.873 211.799,244.101" />
<polyline fill="none" stroke="#000000" points="201.181,239.97 211.211,238.202 214.752,237.021 221.829,234.071 234.81,225.812 235.397,224.634" />
<polyline fill="none" stroke="#000000" points="202.362,230.533 210.618,225.812 214.158,224.634 218.289,224.634 225.96,223.453 229.501,221.681 232.45,219.322 234.81,216.372 240.119,209.882" />
<polyline fill="none" stroke="#000000" points="206.487,216.962 213.57,211.653 217.111,209.882 220.648,208.704 224.194,206.932 233.041,202.804" />
<polyline fill="none" stroke="#000000" points="197.64,202.213 195.869,209.294 194.103,212.832 192.922,216.372 190.562,219.912 188.791,223.453 186.432,226.402 182.891,228.171 179.941,230.533 173.448,234.071 171.092,234.661" />
<polyline fill="none" stroke="#000000" points="142.772,201.032 145.134,207.522 145.725,211.063 146.903,214.603 149.262,217.553 156.933,226.402 159.293,229.352 165.189,233.483 172.27,236.433 172.861,235.842" />
<polyline fill="none" stroke="#000000" points="144.544,210.472 152.8,212.244 156.34,213.422 159.293,215.781 161.652,218.731 162.242,222.272 162.833,229.943 162.833,231.712" />
<polyline fill="none" stroke="#000000" points="191.741,214.603 183.485,219.912 181.12,222.862 179.941,226.402 177.579,231.121" />
<polyline fill="none" stroke="#000000" points="145.134,203.982 153.984,203.982 157.524,205.163 161.058,206.932 164.599,208.113 172.27,209.294 179.941,207.522 190.562,202.804 194.688,202.804 198.228,203.394 198.821,203.394" />
<polyline fill="none" stroke="#000000" points="200.593,54.72 208.264,57.669 211.211,60.029 214.752,61.797 218.289,62.978 221.829,63.569 229.501,64.747" />
<polyline fill="none" stroke="#000000" points="200.002,54.129 207.671,53.538 211.211,54.129 214.752,55.307 218.289,57.079 228.32,62.978 230.091,64.16" />
<polyline fill="none" stroke="#000000" points="201.181,34.658 208.852,41.149 212.392,42.92 219.47,45.87 223.007,46.458 226.548,47.639 236.578,52.357 237.169,52.948" />
<polyline fill="none" stroke="#000000" points="200.593,33.48 208.852,34.068 219.47,36.43 223.007,37.021 226.548,38.789 228.907,41.739 231.86,44.098 234.219,47.045 235.991,50.589 237.757,55.307" />
<polyline fill="none" stroke="#000000" points="223.007,100.736 231.266,94.248 234.81,93.658 238.35,92.477 242.478,92.477 246.016,91.886 248.381,89.527" />
<polyline fill="none" stroke="#000000" points="225.373,101.326 233.631,96.608 237.757,97.198 244.84,96.017 247.2,93.067 248.968,91.886" />
<polyline fill="none" stroke="#000000" points="142.184,96.608 134.513,96.608 127.435,94.836 124.485,91.886 121.533,89.527 118.58,86.577 112.683,83.037 112.096,83.627" />
<polyline fill="none" stroke="#000000" points="140.41,95.426 132.744,93.067 130.382,90.117 129.204,86.577 127.435,83.037 123.895,81.858 120.354,81.268 116.814,81.858 110.321,83.627" />
<polyline fill="none" stroke="#000000" points="195.869,64.16 203.54,67.697 207.08,68.288 210.618,69.469 214.158,71.237 215.342,72.418" />
<polyline fill="none" stroke="#000000" points="197.64,75.959 206.487,74.778 214.158,74.187 217.701,74.778 221.242,75.959 224.779,77.728 228.32,78.909 230.679,81.268" />
<polyline fill="none" stroke="#000000" points="169.914,74.187 162.242,74.778 158.702,73.597 155.162,73.009 151.621,73.597 151.621,74.187" />
<polyline fill="none" stroke="#000000" points="172.27,66.519 163.421,69.469 159.88,70.647 153.393,74.187 152.8,74.187" />
<polyline fill="none" stroke="#000000" points="172.861,60.619 162.242,62.978 158.702,64.16 155.162,64.747 151.621,66.519 148.081,67.697 137.463,71.828 133.922,74.187 130.97,76.546" />
<polyline fill="none" stroke="#000000" points="172.27,58.257 162.242,60.029 158.702,60.619 151.621,62.388 148.081,64.16 134.513,72.418 131.56,74.778 129.794,77.137" />
<polyline fill="none" stroke="#000000" points="173.448,53.538 164.599,52.357 161.058,52.948 157.524,54.129 153.984,55.898 150.443,56.488 146.903,57.669 142.772,57.669 133.335,57.669" />
<polyline fill="none" stroke="#000000" points="134.513,57.669 142.772,51.77 146.312,49.998 149.853,49.408 157.524,48.82 165.189,49.408 172.27,51.179 176.989,52.357" />
<polyline fill="none" stroke="#000000" points="184.66,37.608 176.989,34.658 169.914,32.89 165.783,32.89 162.242,33.48 158.702,34.658 155.162,36.43 144.544,41.149 141.003,41.739 136.872,41.739 133.335,42.33 123.301,46.458 120.945,49.408 119.17,52.948 116.814,57.669" />
<polyline fill="none" stroke="#000000" points="181.12,29.349 172.27,27.581 168.73,26.99 165.189,27.581 161.652,28.759 158.112,29.349 153.984,28.759 149.853,28.759 146.312,28.168 142.772,28.759 135.691,31.118 132.154,33.48 129.204,35.84 126.251,38.789 124.485,42.33 123.301,45.87 122.711,47.045" />
<polyline fill="none" stroke="#000000" points="183.485,37.608 179.351,44.689 174.042,49.998 172.861,53.538" />
<polyline fill="none" stroke="#000000" points="185.25,44.689 185.838,51.179 185.838,55.307 184.66,58.848 184.66,62.978 187.022,65.928 188.791,69.469 191.741,71.828 192.331,72.418" />
<polyline fill="none" stroke="#000000" points="185.838,48.229 194.103,49.998 197.64,51.77" />
<polyline fill="none" stroke="#000000" points="187.61,58.848 195.281,61.797 197.05,62.978" />
<polyline fill="none" stroke="#000000" points="192.922,36.43 184.66,35.84 181.12,34.658" />
<polyline fill="none" stroke="#000000" points="192.331,29.94 183.485,31.118 175.81,31.709 171.68,31.709 168.139,31.118 164.599,31.709 150.443,34.658 146.903,36.43 139.819,38.789 136.285,39.97 124.485,44.689" />
<polyline fill="none" stroke="#000000" points="181.713,30.53 172.861,30.53 165.189,29.94 161.652,30.53 154.571,32.89 151.031,34.068 147.49,34.658 140.41,36.43 136.872,37.021 133.335,38.199 130.382,40.558 126.842,41.739 123.895,44.098 123.301,44.689" />
<polyline fill="none" stroke="#000000" points="156.933,30.53 148.081,31.118 144.544,32.299 137.463,35.249 130.382,39.38 126.842,41.149 124.485,42.92" />
<polyline fill="none" stroke="#000000" points="125.664,41.149 133.922,34.068 137.463,32.299 141.003,31.118 144.544,30.53 148.674,30.53 151.031,30.53" />
<polyline fill="none" stroke="#000000" points="132.744,37.608 141.003,32.299 144.544,31.118 148.081,30.53 149.853,30.53" />
<polyline fill="none" stroke="#000000" points="140.41,36.43 148.674,32.89 152.209,32.299 156.933,32.299" />
<polyline fill="none" stroke="#000000" points="132.154,41.149 139.232,39.38 143.36,39.38 146.903,38.789 150.443,37.021 157.524,32.89" />
<polyline fill="none" stroke="#000000" points="167.552,29.349 174.632,30.53 178.173,31.709 181.713,34.068 185.838,34.658 188.791,34.658" />
<polyline fill="none" stroke="#000000" points="235.397,49.408 227.726,44.689 220.648,40.558 217.111,39.38 210.03,37.608 206.487,36.43 202.952,35.84 200.593,35.249" />
<polyline fill="none" stroke="#000000" points="204.125,35.84 214.158,37.021 217.701,38.789 224.779,41.149 228.32,42.92 230.679,45.87 231.266,47.045" />
<polyline fill="none" stroke="#000000" points="233.631,49.998 225.96,45.87 222.42,44.689 218.877,42.92 215.342,41.739 211.799,41.149 208.264,39.97 205.311,37.608 203.54,34.658" />
<polyline fill="none" stroke="#000000" points="205.311,37.021 214.752,41.739 218.289,42.92 221.829,43.508 225.373,45.87 226.548,45.87" />
<polyline fill="none" stroke="#000000" points="223.007,42.33 214.752,40.558 208.264,38.199" />
<polyline fill="none" stroke="#000000" points="205.311,35.84 214.752,35.249 218.289,36.43 224.779,39.97 229.501,43.508" />
<polyline fill="none" stroke="#000000" points="203.54,34.658 195.281,31.709 195.281,27.581 196.462,24.04 199.415,21.681 202.952,21.09 203.54,21.09" />
<polyline fill="none" stroke="#000000" points="198.228,22.859 206.487,21.681 210.618,21.681 218.289,22.269 221.829,23.45 225.96,24.04 230.091,24.04 233.631,24.631 237.757,24.631 241.303,25.218 244.84,26.99 246.609,28.759" />
<polyline fill="none" stroke="#000000" points="227.726,24.04 235.991,29.94 239.531,31.709 244.25,34.068" />
<polyline fill="none" stroke="#000000" points="239.531,36.43 248.381,41.739 250.74,44.689 254.865,48.82" />
<polyline fill="none" stroke="#000000" points="244.25,42.92 251.328,49.408 253.099,52.357" />
<polyline fill="none" stroke="#000000" points="249.559,52.357 254.865,58.848 257.233,61.797" />
<polyline fill="none" stroke="#000000" points="250.74,59.438 257.233,65.928 258.999,68.878" />
<polyline fill="none" stroke="#000000" points="256.046,68.878 261.358,75.959 262.536,79.496 264.305,83.037 265.489,86.577 261.358,85.986 257.818,84.218 255.458,83.627" />
<polyline fill="none" stroke="#000000" points="256.64,74.187 260.18,81.858 262.536,84.808 264.305,86.577" />
<polyline fill="none" stroke="#000000" points="256.64,78.318 263.13,85.399 264.305,85.986" />
<polyline fill="none" stroke="#000000" points="257.233,81.858 257.233,81.858" />
<polyline fill="none" stroke="#000000" points="261.358,55.307 267.258,62.388 268.439,65.338" />
<polyline fill="none" stroke="#000000" points="262.536,61.21 267.848,68.288 268.439,71.828 269.029,71.828" />
<polyline fill="none" stroke="#000000" points="269.029,73.597 275.52,80.677 279.06,83.627" />
<polyline fill="none" stroke="#000000" points="271.389,80.677 279.65,84.808 282.6,85.986" />
<polyline fill="none" stroke="#000000" points="113.274,47.045 107.374,54.129 105.015,57.079 103.834,58.848" />
<polyline fill="none" stroke="#000000" points="110.911,52.357 107.374,58.848 106.193,62.388 104.424,65.928 102.062,69.469 102.062,70.647" />
<polyline fill="none" stroke="#000000" points="108.555,61.21 106.781,69.469 103.834,76.546 99.706,83.627" />
<polyline fill="none" stroke="#000000" points="125.073,139.677 117.405,136.136 112.096,130.827 110.321,127.287 106.193,120.797 103.246,118.437 100.884,117.847" />
<polyline fill="none" stroke="#000000" points="112.683,134.365 105.602,127.287 102.062,125.515 99.706,125.515" />
<polyline fill="none" stroke="#000000" points="115.045,143.805 106.781,143.214 99.706,140.264 97.344,138.495" />
<polyline fill="none" stroke="#000000" points="111.505,157.966 102.655,156.194 93.213,149.704 89.672,146.754" />
<polyline fill="none" stroke="#000000" points="90.266,147.936 83.775,139.677 83.775,135.546 82.589,132.005 83.185,128.465 83.185,121.387 84.954,117.847 86.135,114.306 89.085,111.357 90.856,107.816" />
<polyline fill="none" stroke="#000000" points="93.803,90.708 86.725,97.786 86.135,101.917 83.775,104.866 83.185,108.407 80.235,111.357 79.645,114.897 77.282,117.847 77.876,121.387 76.695,124.925 76.104,128.465 76.695,132.005 75.517,135.546 77.282,139.086 77.876,142.626 79.057,146.164 81.413,149.114 82.589,152.654 84.954,155.604 86.725,159.144 90.266,159.735 92.034,162.685" />
<polyline fill="none" stroke="#000000" points="90.856,92.477 83.775,100.148 79.057,106.048 77.876,109.588 76.104,113.125 74.926,116.666 73.157,123.746 74.926,127.287 73.742,130.827 73.157,134.365 75.517,137.314 77.282,139.086" />
<polyline fill="none" stroke="#000000" points="85.541,99.557 80.235,107.226 79.645,110.766 78.466,114.897 75.517,117.256 75.517,121.387 76.104,124.925 74.336,128.465 74.926,132.005 74.926,134.365" />
<polyline fill="none" stroke="#000000" points="81.413,146.754 79.645,153.245 82.007,156.194 81.413,159.735 84.954,161.504 81.413,163.866 84.366,166.225 86.725,169.175 90.856,169.175 90.856,171.534" />
<polyline fill="none" stroke="#000000" points="108.555,106.048 100.884,99.557 99.706,96.017 94.984,91.298 90.856,91.886 90.266,92.477" />
<polyline fill="none" stroke="#000000" points="245.428,116.666 253.099,113.716 260.77,112.538 264.305,113.125 267.848,114.306 270.795,117.256 273.157,120.206 276.107,122.565 276.698,122.565" />
<polyline fill="none" stroke="#000000" points="264.305,89.527 254.865,97.198 254.865,101.326 255.458,104.866 257.233,108.407 257.233,112.538 254.865,115.488 251.328,116.075 250.149,116.075" />
<polyline fill="none" stroke="#000000" points="225.96,144.395 234.219,141.445 237.757,139.677 240.709,137.314 246.609,132.005 251.918,126.106 254.865,123.746 254.865,123.156" />
<polyline fill="none" stroke="#000000" points="245.428,155.016 253.099,150.885 255.458,147.936 257.233,144.395 258.411,140.855 258.999,137.314 259.586,129.646 258.411,126.106 256.64,124.925" />
<polyline fill="none" stroke="#000000" points="241.303,144.986 250.149,140.264 253.099,137.905 254.865,136.727" />
<polyline fill="none" stroke="#000000" points="267.258,96.608 271.389,103.098 272.57,106.638 273.157,110.176 274.341,113.716 274.929,117.847 276.698,121.387 277.288,124.925 277.288,129.056 276.698,132.596 274.341,143.214 272.57,150.295 271.389,153.835 268.439,160.916 266.082,163.866 263.13,166.816 260.18,169.175 256.64,170.944 253.687,173.303 249.559,174.484 245.428,176.256" />
<polyline fill="none" stroke="#000000" points="250.74,176.256 259.586,175.074 263.72,175.074 270.208,175.665" />
<polyline fill="none" stroke="#000000" points="257.233,173.303 264.898,172.715 268.439,171.534 271.976,172.125 273.748,172.125" />
<polyline fill="none" stroke="#000000" points="253.099,176.256 263.72,170.944 270.795,168.584" />
<polyline fill="none" stroke="#000000" points="255.458,173.303 255.458,173.303" />
<polyline fill="none" stroke="#000000" points="96.165,58.848 88.494,63.569 85.541,64.16" />
<polyline fill="none" stroke="#000000" points="91.444,61.797 82.589,64.16 76.104,65.338" />
<polyline fill="none" stroke="#000000" points="86.725,66.519 77.282,71.237 67.845,73.009" />
<polyline fill="none" stroke="#000000" points="76.104,71.828 66.667,76.546 63.714,77.728" />
<polyline fill="none" stroke="#000000" points="72.564,80.087 63.714,84.218 59.586,85.986 57.818,87.758" />
<polyline fill="none" stroke="#000000" points="69.617,85.399 60.762,90.117 57.818,92.477 56.634,93.658" />
<polyline fill="none" stroke="#000000" points="67.845,89.527 56.634,97.786 53.687,100.148 53.093,101.917" />
<polyline fill="none" stroke="#000000" points="63.714,98.376 54.868,104.866 52.503,107.816" />
<polyline fill="none" stroke="#000000" points="62.536,107.226 53.093,113.125 51.915,115.488" />
<polyline fill="none" stroke="#000000" points="60.762,113.125 53.093,116.666 52.503,116.666" />
<polyline fill="none" stroke="#000000" points="58.405,119.616 49.556,123.746 48.968,124.337" />
<polyline fill="none" stroke="#000000" points="58.996,123.156 51.325,126.106 48.375,128.465 49.556,128.465" />
<polyline fill="none" stroke="#000000" points="59.586,127.874 50.737,130.827 50.146,130.827" />
<polyline fill="none" stroke="#000000" points="60.762,130.827 51.915,133.186 48.968,134.955" />
<polyline fill="none" stroke="#000000" points="58.996,134.955 51.325,137.314 49.556,138.495" />
<polyline fill="none" stroke="#000000" points="59.586,137.314 50.737,139.677 47.197,140.855 45.428,141.445" />
<polyline fill="none" stroke="#000000" points="56.634,142.036 47.784,144.986 46.016,145.576" />
<polyline fill="none" stroke="#000000" points="60.762,144.986 51.915,147.936 48.375,149.114 47.197,150.295" />
<polyline fill="none" stroke="#000000" points="61.352,149.114 52.503,152.064 48.375,153.245 46.016,155.016" />
<polyline fill="none" stroke="#000000" points="58.996,155.016 49.556,156.194 50.146,157.376" />
<polyline fill="none" stroke="#000000" points="61.352,157.966 53.687,160.325 52.503,160.916" />
<polyline fill="none" stroke="#000000" points="63.714,160.916 54.868,164.453" />
<polyline fill="none" stroke="#000000" points="290.862,104.866 299.118,108.997 302.068,110.766" />
<polyline fill="none" stroke="#000000" points="290.862,108.997 299.118,112.538 301.477,113.716" />
<polyline fill="none" stroke="#000000" points="291.447,111.947 300.299,118.437 303.246,119.616" />
<polyline fill="none" stroke="#000000" points="290.272,117.256 299.118,123.156 300.299,123.746" />
<polyline fill="none" stroke="#000000" points="290.862,121.975 299.709,127.874 302.068,128.465" />
<polyline fill="none" stroke="#000000" points="291.447,126.696 299.118,130.827 303.837,133.186" />
<polyline fill="none" stroke="#000000" points="292.625,134.955 300.887,138.495 303.246,139.086" />
<polyline fill="none" stroke="#000000" points="289.678,139.677 299.118,142.036 300.299,142.626" />
<polyline fill="none" stroke="#000000" points="289.678,143.214 297.937,146.754" />
<polyline fill="none" stroke="#000000" points="287.319,147.345 296.165,151.476 299.118,153.835 300.299,154.426" />
<polyline fill="none" stroke="#000000" points="287.906,152.064 299.118,155.604 300.887,156.785" />
<polyline fill="none" stroke="#000000" points="289.088,157.966 297.344,161.504 302.068,163.866" />
<polyline fill="none" stroke="#000000" points="290.272,162.094 298.528,166.225 300.887,167.403" />
<polyline fill="none" stroke="#000000" points="287.906,166.816 296.165,169.765 299.118,171.534" />
<polyline fill="none" stroke="#000000" points="286.728,172.125 294.99,175.665 296.165,176.256" />
<polyline fill="none" stroke="#000000" points="281.419,176.843 281.419,176.843" />
<polyline fill="none" stroke="#000000" points="283.188,181.565 283.188,181.565" />
<polyline fill="none" stroke="#000000" points="175.81,19.909 167.552,17.55 163.421,18.141 162.833,18.141" />
<polyline fill="none" stroke="#000000" points="165.783,16.96 156.933,17.55 146.312,16.369" />
<polyline fill="none" stroke="#000000" points="152.8,17.55 142.772,16.369 139.232,17.55 131.56,18.731 128.02,18.141 124.485,15.191 123.301,15.191" />
<polyline fill="none" stroke="#000000" points="196.462,21.681 205.899,19.319 210.618,19.319 214.158,19.909 218.289,21.09 221.829,21.681 223.007,22.269" />
<polyline fill="none" stroke="#000000" points="190.562,14.01 202.362,10.469 206.487,10.469 210.03,9.879 213.57,10.469 220.648,12.831 223.601,15.191 227.141,16.369 238.35,19.909 242.478,21.09 246.609,21.681 247.79,21.681" />
<polyline fill="none" stroke="#000000" points="141.594,24.04 130.382,24.631 126.251,24.631 113.274,26.4" />
<polyline fill="none" stroke="#000000" points="119.764,35.249 107.965,38.789 105.602,39.97" />
<polyline fill="none" stroke="#000000" points="94.391,44.098 84.954,51.77 74.336,55.898 70.795,57.079 63.127,58.848 61.946,59.438" />
<polyline fill="none" stroke="#000000" points="74.336,58.257 64.893,61.797 58.405,62.388" />
<polyline fill="none" stroke="#000000" points="64.893,65.338 56.043,68.878 51.915,70.647 45.428,74.778 41.888,76.546 38.935,79.496 37.757,80.677" />
<polyline fill="none" stroke="#000000" points="42.478,80.087 33.038,85.986 30.676,88.936 27.729,91.886 25.367,96.017 22.417,101.917" />
<polyline fill="none" stroke="#000000" points="28.907,98.376 21.239,106.638 18.877,110.176" />
<polyline fill="none" stroke="#000000" points="24.189,112.538 17.698,120.206 16.517,123.156" />
<polyline fill="none" stroke="#000000" points="24.189,108.997 19.464,116.075 18.286,119.616 17.108,120.797" />
<polyline fill="none" stroke="#000000" points="25.957,117.256 17.698,123.746 15.924,127.874 15.333,130.237" />
<polyline fill="none" stroke="#000000" points="25.367,126.106 16.517,132.596 15.333,136.136 15.333,140.264 14.746,141.445" />
<polyline fill="none" stroke="#000000" points="33.038,133.186 22.417,136.136 19.464,138.495 17.108,141.445 14.158,143.805 13.568,143.805" />
<polyline fill="none" stroke="#000000" points="31.266,142.626 20.648,147.345 18.286,150.295 17.698,153.835 15.924,157.376 13.568,160.325 10.615,162.685" />
<polyline fill="none" stroke="#000000" points="23.005,137.314 17.698,146.754 17.108,150.295 16.517,151.476" />
<polyline fill="none" stroke="#000000" points="26.548,156.785 15.333,162.094 12.389,162.685" />
<polyline fill="none" stroke="#000000" points="24.77,159.144 21.239,166.816 20.648,170.353 18.877,173.893" />
<polyline fill="none" stroke="#000000" points="30.676,169.765 23.005,179.205 20.058,181.565" />
<polyline fill="none" stroke="#000000" points="35.394,173.893 25.957,182.743 22.417,183.924 21.239,183.924" />
<polyline fill="none" stroke="#000000" points="29.498,169.765 21.826,173.893 18.286,174.484" />
<polyline fill="none" stroke="#000000" points="33.629,176.256 28.314,184.514 22.417,189.821 19.464,192.183 18.877,192.773" />
<polyline fill="none" stroke="#000000" points="19.464,193.364 27.729,194.542 31.266,193.364 34.807,192.773 38.935,191.592 39.525,191.005" />
<polyline fill="none" stroke="#000000" points="29.498,197.492 37.166,200.445 40.703,201.032 44.244,200.445 47.784,199.264" />
<polyline fill="none" stroke="#000000" points="41.297,202.804 49.556,206.344 53.687,207.522 57.818,206.932 60.174,205.754" />
<polyline fill="none" stroke="#000000" points="295.575,91.298 303.837,98.376 306.202,101.326 311.508,106.638 315.639,110.176" />
<polyline fill="none" stroke="#000000" points="310.327,110.176 319.77,116.666 322.126,120.206 323.898,123.746 326.257,126.696 325.666,128.465" />
<polyline fill="none" stroke="#000000" points="313.867,121.975 323.898,127.874 326.85,130.237 327.435,133.777 329.207,136.727" />
<polyline fill="none" stroke="#000000" points="309.733,140.264 317.998,147.345 319.77,150.885 322.717,153.835 325.079,157.376 326.85,160.325" />
<polyline fill="none" stroke="#000000" points="313.867,144.986 324.488,150.295 325.666,152.064" />
<polyline fill="none" stroke="#000000" points="328.029,137.314 329.207,144.395 326.257,146.754 327.435,150.295 323.31,150.295 323.31,150.885" />
<polyline fill="none" stroke="#000000" points="327.435,160.325 331.569,167.403 329.207,170.353 329.797,173.893 328.029,177.434 329.797,180.974 327.435,183.924 328.029,187.464 325.666,190.414 323.31,189.821" />
<polyline fill="none" stroke="#000000" points="319.77,191.592 328.029,197.492 324.488,199.264 320.945,198.673 317.998,196.314 315.051,193.364 317.408,196.314 313.867,198.082 316.226,201.032 317.998,204.573 314.458,202.804 315.639,206.344 312.098,208.704 308.555,209.294 309.149,212.832 305.608,216.372 303.246,215.781" />
<polyline fill="none" stroke="#000000" points="51.915,207.522 59.586,214.013 56.634,216.962 60.174,218.731 61.352,222.272 66.077,222.272 69.617,221.681 70.202,225.812 74.336,225.812 76.695,229.352 80.235,228.762 83.775,230.533 87.316,229.943 88.494,233.483 92.034,234.661 93.213,238.202 96.753,238.792 100.296,237.021 103.246,237.611" />
<polyline fill="none" stroke="#000000" points="169.914,237.611 167.552,244.101 164.599,246.461 161.058,248.232 157.524,248.823 149.853,249.41 146.312,250.001 142.184,250.001 138.641,249.41 134.513,249.41 126.842,250.592 125.073,251.182" />
<polyline fill="none" stroke="#000000" points="154.571,237.611 145.134,242.333 137.463,243.511 129.204,242.92 121.533,242.333 120.354,242.92" />
<polyline fill="none" stroke="#000000" points="139.819,237.021 130.382,235.252 106.781,224.634" />
<polyline fill="none" stroke="#000000" points="142.184,226.993 129.794,224.634 126.251,223.453 119.17,220.503 115.63,218.143 110.321,212.832 107.965,211.653" />
<polyline fill="none" stroke="#000000" points="135.691,208.704 123.895,205.163 120.354,203.982 113.861,201.623" />
<polyline fill="none" stroke="#000000" points="130.97,276.549 134.513,269.472 138.053,262.391" />
<polyline fill="none" stroke="#000000" points="138.641,262.391 138.641,269.472 138.053,273.012 138.053,277.14 138.641,280.68" />
<polyline fill="none" stroke="#000000" points="181.713,283.04 184.072,275.371 185.838,271.831 185.838,267.7 186.432,266.522" />
<polyline fill="none" stroke="#000000" points="187.61,265.931 188.791,273.012 188.791,277.14 188.194,280.68 187.61,284.221" />
<polyline fill="none" stroke="#000000" points="128.02,277.14 135.691,283.63 139.232,284.221 142.772,282.449 146.312,284.221 149.853,283.63 153.393,284.221 156.933,283.04 160.471,284.221 164.599,284.221 168.139,284.811 171.68,283.63 175.81,283.63 179.351,283.04 182.891,281.861 185.838,284.221 189.381,283.63 192.922,282.449 196.462,280.68 199.415,283.04" />
<polyline fill="none" stroke="#000000" points="125.664,277.14 116.814,284.811 114.452,288.349 117.992,287.761 116.814,291.298 120.354,290.12 119.764,293.661 123.301,292.48 124.485,296.02 128.613,296.02 129.794,299.56 133.335,298.97 135.691,301.92 139.819,300.151 140.41,303.688 143.36,301.329 145.725,304.869 150.443,304.279 153.393,301.92 153.984,305.46 157.524,306.05 160.471,308.41 163.421,306.05 166.373,308.41 169.914,307.229 174.042,306.638 177.579,307.229 180.529,304.869 184.66,304.279 187.022,301.329 191.156,301.329 194.688,299.56 201.768,296.61 204.125,293.661 206.487,284.811 203.54,282.449 198.821,282.449 195.869,284.221" />
<polyline fill="none" stroke="#000000" points="125.073,251.773 122.711,259.441 122.123,262.981 122.123,267.109 122.123,271.24 121.533,274.781 121.533,278.912 121.533,280.68" />
<polyline fill="none" stroke="#000000" points="201.181,252.951 202.362,259.441 201.768,263.572 201.768,267.7 201.181,271.24 199.415,279.499" />
<polyline fill="none" stroke="#000000" points="142.184,250.001 142.772,257.082 142.772,261.21 145.134,258.26 146.903,254.722 147.49,251.182 148.674,250.592" />
<polyline fill="none" stroke="#000000" points="181.12,252.36 181.12,259.441 181.12,263.572 183.485,260.622 184.072,257.082 185.838,253.541 185.838,253.541" />
<polyline fill="none" stroke="#000000" points="235.991,227.584 244.84,228.762 248.381,229.943 256.046,231.712 259.586,232.893 286.728,242.92 300.887,250.592 303.246,253.541 306.202,255.901 340.418,279.499 343.365,281.861 351.037,286.58 354.577,288.939" />
<polyline fill="none" stroke="#000000" points="239.531,224.043 247.2,224.043 250.74,224.634 254.28,226.402 258.411,227.584 269.617,230.533 273.157,231.712 277.288,232.302 288.497,234.661 302.661,238.792 306.202,240.561 317.408,246.461 325.079,250.592 336.29,256.491 343.959,260.031 355.755,265.931" />
<polyline fill="none" stroke="#000000" points="233.041,224.043 243.069,221.681 247.2,221.681 251.328,222.272 263.72,223.453 267.848,224.634 271.976,225.221 276.107,226.402 288.497,229.352 292.625,230.533 296.759,231.121 300.887,232.302 304.427,232.893 308.555,234.071 312.098,234.661 316.226,235.842 319.77,236.433 323.898,237.611 325.079,237.611" />
<polyline fill="none" stroke="#000000" points="240.709,205.754 250.149,203.394 274.341,199.264 278.466,198.673 290.862,197.492 294.397,196.904 302.068,196.314 305.608,195.723 312.683,193.954 315.639,192.773" />
<polyline fill="none" stroke="#000000" points="240.709,201.032 250.74,196.314 254.865,195.133 258.411,194.542 261.946,193.364 266.67,192.773 275.52,191.005 292.625,188.642 299.709,188.642" />
<polyline fill="none" stroke="#000000" points="245.428,215.194 257.233,215.194 261.946,215.781 266.67,216.962 299.709,223.453 304.427,224.634 315.639,228.762 319.176,229.943 326.85,231.712 330.976,232.893 332.75,233.483" />
<polyline fill="none" stroke="#000000" points="281.419,177.434 289.678,180.384 293.218,182.155" />
<polyline fill="none" stroke="#000000" points="280.829,181.565 289.678,185.693 290.862,186.283" />
<polyline fill="none" stroke="#000000" points="103.246,178.615 94.984,180.974 93.213,181.565" />
<polyline fill="none" stroke="#000000" points="102.062,206.344 91.444,201.623 87.906,201.032 83.775,199.854 79.645,199.854 71.976,199.264 67.845,199.264 59.586,198.673 55.455,198.673 43.656,198.082 38.935,198.673 23.595,198.082" />
<polyline fill="none" stroke="#000000" points="87.906,191.592 74.336,189.233 69.617,188.642 54.868,185.693 47.784,183.924 44.244,182.155 40.703,180.974 30.088,176.843 19.464,170.944 10.027,163.275 6.487,162.094 5.309,161.504" />
<polyline fill="none" stroke="#000000" points="99.115,209.294 87.316,206.344 83.775,205.754 79.057,205.754 66.667,206.344 55.455,207.522 51.915,208.113 44.837,209.882 37.166,213.422 33.629,214.603 30.088,216.372 26.548,218.731 20.058,224.043 17.108,226.402 14.158,229.352 11.205,231.712 4.718,236.433 1.178,239.97 0,240.561" />
<polyline fill="none" stroke="#000000" points="96.165,219.912 83.185,222.862 79.057,223.453 75.517,224.634 68.433,226.402 52.503,231.121 48.375,232.302 44.837,234.071 26.548,244.101 12.389,252.951 2.356,258.26" />
<polyline fill="none" stroke="#000000" points="103.246,228.762 90.266,234.071 86.135,236.433 82.589,237.611 63.714,245.282 56.634,249.41 50.146,254.132 41.297,261.8 20.648,281.861 15.333,287.17 12.389,289.53 8.849,291.889 5.896,294.251 0,299.56" />
<polyline fill="none" stroke="#000000" points="100.296,234.071 91.444,242.333 88.494,244.692 86.135,247.642 83.185,250.001 80.235,252.951 77.282,255.31 74.336,258.26 71.386,260.622 68.433,263.572 65.48,265.931 63.127,268.881 60.174,271.831 54.868,277.73 47.197,287.17 44.837,290.12 43.066,293.661 41.888,297.201 40.113,300.738 37.757,304.279 35.394,308.41" />
<polyline fill="none" stroke="#000000" points="107.965,232.302 99.115,240.561 96.165,244.101 90.266,249.41 87.906,252.36 82.589,257.672 80.235,261.21 77.282,264.16 74.926,267.109 58.996,288.349 53.093,298.379 51.915,301.92 49.556,304.869 45.428,311.95 40.703,322.568" />
<polyline fill="none" stroke="#000000" points="111.505,238.202 102.062,248.232 99.115,251.182 96.753,254.722 93.803,257.672 91.444,261.21 89.672,264.75 86.725,267.7 84.366,271.24 82.589,274.781 79.645,281.861 77.876,285.399 74.926,292.48 73.157,296.02 70.202,303.101 68.433,310.178 66.667,317.85 64.893,324.34" />
<polyline fill="none" stroke="#000000" points="112.096,240.561 103.834,253.541 102.062,257.082 99.115,264.16 97.344,268.29 96.165,271.831 94.391,275.962 93.213,280.09 91.444,284.221 90.266,288.349 86.725,295.429 85.541,299.56 84.954,303.688 83.185,310.769 82.589,314.9 81.413,326.109 80.823,326.699" />
<polyline fill="none" stroke="#000000" points="208.852,243.511 211.211,250.001 211.799,253.541 214.752,264.16 215.342,267.7 216.523,271.24 216.523,275.371 217.701,278.912 218.289,283.04 218.877,290.711 218.877,297.789" />
<polyline fill="none" stroke="#000000" points="215.93,239.97 221.242,247.051 225.373,253.541 229.501,260.622 235.991,270.65 240.119,277.14 241.89,280.68 244.25,283.63 246.016,287.17 247.2,290.711 250.149,297.789 251.328,301.329 251.918,304.869 254.28,314.9" />
<polyline fill="none" stroke="#000000" points="222.42,239.383 231.266,247.051 233.631,250.001 238.938,255.901 244.25,261.8 247.79,264.16 250.74,267.109 261.946,278.912 268.439,288.349 274.341,299.56 274.929,301.92" />
<polyline fill="none" stroke="#000000" points="224.194,235.842 235.397,242.92 238.35,245.873 241.89,248.232 244.84,251.182 248.381,253.541 257.233,261.21 263.13,267.109 265.489,270.062 268.439,272.421 270.795,275.371 279.65,287.761 282.007,291.298 283.778,294.839 287.906,301.92 289.678,305.46 297.937,319.028 300.299,321.978 303.246,325.518" />
<polyline fill="none" stroke="#000000" points="230.091,234.661 238.35,241.152 244.84,246.461 254.28,254.722 256.64,257.672 259.586,260.031 282.007,277.73 287.319,284.221 290.272,286.58 293.218,290.12 306.786,306.05" />
<polyline fill="none" stroke="#000000" points="237.169,235.842 247.2,241.742 253.687,245.873 257.818,248.232 292.625,270.65 295.575,273.012 300.887,278.321 308.555,286.58 312.098,289.53" />
<polyline fill="none" stroke="#000000" points="234.219,232.302 241.89,235.252 256.64,242.333 264.305,245.282 268.439,247.642 271.976,248.823 275.52,250.592 294.397,259.441" />
<polyline fill="none" stroke="#000000" points="305.608,216.962 297.937,221.093 294.397,221.681 296.759,225.221 292.625,225.812 288.497,225.812 289.088,229.352 291.447,232.302 287.319,233.483 279.65,234.661 275.52,235.252 267.258,237.611 260.77,241.152 257.233,239.383 254.28,242.333 251.918,245.282 248.381,245.873 245.428,248.823 241.89,247.642 237.757,248.232 234.219,249.41 230.679,248.823 227.726,251.182 223.601,252.36 219.47,250.001 211.799,247.051" />
<polyline fill="none" stroke="#000000" points="100.884,238.792 99.706,247.051 104.424,247.051 107.965,245.873 111.505,244.101 112.683,247.642 116.224,248.232 118.58,249.41" />
<polyline fill="none" stroke="#000000" points="119.17,250.001 112.096,260.622 116.814,260.622 115.63,264.16 113.861,267.7 115.63,271.24 115.045,275.371 115.63,278.912 116.224,283.04" />
<polyline fill="none" stroke="#000000" points="207.671,252.951 212.977,260.031 209.44,261.8 209.44,265.931 207.08,268.881 206.487,272.421 205.311,275.962 204.718,279.499 203.54,283.04 200.593,285.399 198.821,285.399" />
<polyline fill="none" stroke="#000000" points="147.49,143.805 148.674,149.114 150.443,152.654 146.312,151.476 146.312,155.604 148.674,159.144 149.853,162.685 146.312,162.094 143.95,159.144 144.544,162.685 146.312,166.816 147.49,170.944 143.95,169.175 144.544,173.303 146.312,176.843 143.36,179.205 144.544,182.743 144.544,190.414 145.134,193.364" />
<polyline fill="none" stroke="#000000" points="201.181,150.295 196.462,155.604 200.593,156.194 198.821,159.735 201.768,162.685 200.002,166.816 202.952,169.175 199.415,172.125 197.05,175.074 201.181,175.665 198.228,179.205 200.593,182.155 200.002,185.693 198.821,189.233 202.952,189.233 200.002,192.183 196.462,195.133 195.281,196.904" />
<polyline fill="none" stroke="#000000" points="200.593,147.345 208.852,147.936 208.852,149.704 205.899,153.245 210.618,153.245 210.618,155.016 205.899,156.194 210.03,157.966 214.158,157.376 214.158,157.966 206.487,160.916 211.211,162.685 216.523,162.685 220.648,163.275 217.111,166.225 213.57,167.403 212.977,170.944 217.701,170.944 221.242,170.353 216.523,172.715 211.799,174.484 214.158,177.434 218.877,177.434 214.158,177.434 210.03,178.024 207.08,180.384 211.799,181.565 208.264,182.155" />
<polyline fill="none" stroke="#000000" points="141.594,149.114 140.41,154.426 143.36,156.785 139.232,158.554 142.184,161.504 138.053,162.685 141.003,166.225 144.544,172.715 141.003,173.893 136.872,173.893 140.41,176.843 141.003,180.384 136.285,180.384 134.513,180.974" />
<polyline fill="none" stroke="#000000" points="207.08,153.835 206.487,160.325 203.54,162.685 206.487,165.044 202.952,167.994 206.487,170.944 210.03,169.765 205.899,172.715 208.264,175.665 211.799,176.256 208.264,178.024 204.125,179.205 208.264,180.974 210.618,180.974" />
<polyline fill="none" stroke="#000000" points="230.679,188.055 238.35,193.364 241.89,196.314" />
<polyline fill="none" stroke="#000000" points="232.45,187.464 243.069,191.592 246.609,192.773" />
<polyline fill="none" stroke="#000000" points="234.81,183.924 247.2,186.874 252.509,187.464 258.999,188.642" />
<polyline fill="none" stroke="#000000" points="242.478,186.283 250.74,190.414 254.865,190.414 258.411,190.414" />
<polyline fill="none" stroke="#000000" points="249.559,185.693 249.559,185.693" />
<polyline fill="none" stroke="#000000" points="179.941,52.357 179.351,59.438 177.579,62.978 176.398,66.519 176.989,70.059 179.351,73.009 182.891,80.087 183.485,83.627" />
<polyline fill="none" stroke="#000000" points="138.053,70.647 146.312,67.109 160.471,62.388 171.68,60.619" />
<polyline fill="none" stroke="#000000" points="138.641,57.669 147.49,55.307 162.242,52.357 165.783,51.179 169.914,51.77 172.27,52.948" />
<polyline fill="none" stroke="#000000" points="138.641,56.488 148.081,52.357 151.621,51.77 155.749,51.77 159.293,51.179 162.833,51.77 167.552,52.357" />
<polyline fill="none" stroke="#000000" points="143.36,58.257 156.34,52.948 159.88,52.357 164.011,52.357 167.552,51.77 171.092,52.357" />
<polyline fill="none" stroke="#000000" points="201.181,55.898 210.03,57.079 213.57,58.257 224.194,62.388 224.779,62.978" />
<polyline fill="none" stroke="#000000" points="202.362,54.72 211.799,55.898 215.342,57.079 222.42,60.029" />
<polyline fill="none" stroke="#000000" points="204.125,57.079 214.752,62.978 218.289,64.16 221.242,64.747" />
<polyline fill="none" stroke="#000000" points="191.156,65.338 200.593,70.059 208.264,72.418 215.342,74.778 216.523,75.368" />
<polyline fill="none" stroke="#000000" points="216.523,74.187 205.899,70.647 202.362,69.469 198.821,67.697 195.281,66.519 191.741,64.747 187.61,60.619" />
<polyline fill="none" stroke="#000000" points="187.022,61.797 197.05,65.928 197.64,67.109" />
<polyline fill="none" stroke="#000000" points="189.969,67.697 182.891,60.029 181.713,56.488 181.12,52.948 180.529,50.589" />
<polyline fill="none" stroke="#000000" points="182.298,44.689 183.485,54.129 185.25,61.21 187.022,64.16" />
<polyline fill="none" stroke="#000000" points="184.072,44.098 183.485,55.898 184.072,60.029 185.25,64.16 187.022,67.697 189.969,70.647 190.562,70.647" />
<polyline fill="none" stroke="#000000" points="176.398,56.488 174.632,66.519 175.223,70.059 177.579,73.597 180.529,80.087" />
<polyline fill="none" stroke="#000000" points="172.27,67.109 162.833,71.828 156.34,72.418" />
<polyline fill="none" stroke="#000000" points="155.162,74.187 164.599,74.187 168.139,72.418 170.501,71.828" />
<polyline fill="none" stroke="#000000" points="171.092,70.647 162.833,73.597 157.524,74.187" />
<polyline fill="none" stroke="#000000" points="158.702,78.318 152.209,87.758 149.262,90.117" />
<polyline fill="none" stroke="#000000" points="172.27,77.728 168.73,86.577 168.73,90.708 168.139,93.067" />
<polyline fill="none" stroke="#000000" points="162.833,104.276 164.011,95.426 164.599,86.577 163.421,83.037" />
<polyline fill="none" stroke="#000000" points="158.112,84.218 158.702,94.248 158.112,97.786 157.524,103.685" />
<polyline fill="none" stroke="#000000" points="153.984,93.658 153.984,101.326 153.393,104.866 153.393,108.997 153.984,112.538 153.984,120.797 153.393,121.387" />
<polyline fill="none" stroke="#000000" points="145.134,124.337 145.134,124.337" />
<polyline fill="none" stroke="#000000" points="154.571,122.565 154.571,129.646 153.393,126.106 152.8,130.237 150.443,130.237 149.853,126.696 149.853,130.827 146.312,130.237 145.134,126.696 144.544,126.696" />
<polyline fill="none" stroke="#000000" points="204.125,85.399 204.718,93.658 205.899,97.198 206.487,104.276 207.08,107.816 204.718,110.766 202.952,114.306 204.718,117.847 202.362,121.975 201.768,125.515 202.362,129.056 205.311,131.415 208.852,130.827 209.44,130.827" />
<polyline fill="none" stroke="#000000" points="216.523,82.449 219.47,89.527 221.829,94.248" />
<polyline fill="none" stroke="#000000" points="215.342,83.037 204.718,81.858 201.181,79.496 200.593,78.909" />
<polyline fill="none" stroke="#000000" points="194.688,81.268 194.688,81.268" />
<polyline fill="none" stroke="#000000" points="105.015,35.249 96.753,39.97 93.213,42.33 89.672,43.508 86.135,45.28 88.494,48.229 90.856,48.229" />
<polyline fill="none" stroke="#000000" points="279.65,71.237 286.138,77.137 295.575,84.808 299.118,86.577 295.575,87.758 298.528,90.708 294.99,91.298 293.812,91.298" />
<polyline fill="none" stroke="#000000" points="268.439,48.229 276.698,54.129 280.238,59.438 276.107,59.438 279.06,62.978 282.007,65.338 280.829,68.878 277.288,69.469 276.107,70.059" />
<polyline fill="none" stroke="#000000" points="249.559,32.299 259.586,42.92 263.13,44.689 266.67,49.998 263.13,50.589" />
<polyline fill="none" stroke="#000000" points="128.704,113.309 128.704,117.952 130.251,116.017 128.32,114.469 126.772,116.404 129.093,116.791 130.251,114.469 127.933,114.082 126.382,116.017 127.933,117.952 130.251,117.565 130.641,115.243 128.32,114.082 126.772,116.017 127.159,118.338 129.48,117.952 130.641,115.63 128.704,114.082 126.772,115.63 128.32,117.565 130.251,115.63 128.704,113.696 126.772,115.243 129.093,116.404 129.48,114.082 127.159,114.469 128.704,116.404" />
<polyline fill="none" stroke="#000000" points="224.701,120.276 223.93,124.919 223.156,122.597 225.474,121.437 226.251,123.758 223.93,124.532 222.769,122.21 225.09,121.05 226.251,123.371 224.314,124.919 222.379,123.371 223.156,121.05 225.474,120.663 226.251,122.984 224.314,124.532 223.54,122.21 225.864,121.437 223.93,122.984 224.314,122.984" />
<polyline fill="none" stroke="#000000" points="259.586,44.098 267.848,44.098 271.976,42.33 275.52,41.739 279.65,41.739 292.625,42.33 296.165,43.508 303.246,46.458 306.202,49.408 306.202,52.357" />
<polyline fill="none" stroke="#000000" points="242.478,24.04 251.918,25.809 256.64,25.809 264.898,26.99 269.029,27.581 272.57,28.759 276.107,29.349 272.57,31.118 276.107,31.709 286.728,34.068 289.088,37.021 292.625,37.608 296.759,38.789 299.709,41.149 303.246,42.33 306.786,44.689 307.97,48.229 310.327,49.998" />
<polyline fill="none" stroke="#000000" points="120.945,24.04 112.683,24.04 108.555,24.04 96.165,24.631 92.625,25.809 89.085,26.4 92.625,27.581 89.085,29.349 84.954,30.53 78.466,34.068 73.742,36.43 57.818,43.508 60.762,45.87 57.227,46.458 53.687,48.229 54.277,50.589" />
<polyline fill="none" stroke="#000000" points="53.687,50.589 62.536,51.179 67.255,50.589 71.386,52.357 74.926,51.77 78.466,51.179" />
<polyline fill="none" stroke="#000000" points="54.277,51.179 65.48,54.72 70.202,55.307 79.057,56.488" />
<polyline fill="none" stroke="#000000" points="60.174,52.948 70.795,52.948 74.926,53.538 82.007,54.129" />
<polyline fill="none" stroke="#000000" points="72.564,53.538 72.564,53.538" />
<polyline fill="none" stroke="#000000" points="307.97,51.179 298.528,52.948 294.99,53.538 292.037,55.898 287.906,57.079 283.778,57.669 280.238,59.438 279.06,59.438" />
<polyline fill="none" stroke="#000000" points="276.107,47.045 267.258,47.045 263.13,47.045 259.586,46.458 258.411,46.458" />
<polyline fill="none" stroke="#000000" points="289.088,46.458 273.157,44.689 267.258,44.098 257.233,42.92" />
<polyline fill="none" stroke="#000000" points="295.575,46.458 284.369,44.689 279.06,44.098 267.258,44.098 263.72,44.098" />
<polyline fill="none" stroke="#000000" points="295.575,44.689 284.369,41.739 279.65,41.739 274.929,42.33 270.795,43.508 269.617,44.689" />
<polyline fill="none" stroke="#000000" points="288.497,47.639 272.57,47.639 266.67,47.639 262.536,48.229 261.358,48.229" />
<polyline fill="none" stroke="#000000" points="280.238,49.998 268.439,50.589 267.258,51.179" />
<polyline fill="none" stroke="#000000" points="283.188,51.179 273.748,52.357 270.795,53.538" />
<polyline fill="none" stroke="#000000" points="284.96,56.488 284.96,56.488" />
<polyline fill="none" stroke="#000000" points="182.891,19.319 174.042,17.55 166.373,15.781 158.702,15.781" />
<polyline fill="none" stroke="#000000" points="191.156,9.879 182.891,13.419 187.022,15.191 188.791,15.191" />
<polyline fill="none" stroke="#000000" points="185.25,18.731 172.27,18.141 168.139,18.141 164.599,18.731" />
<polyline fill="none" stroke="#000000" points="174.042,13.419 183.485,15.191 190.562,16.96 193.509,18.141" />
<polyline fill="none" stroke="#000000" points="191.156,10.469 180.529,13.419 176.398,15.191 172.27,16.369 169.323,18.141" />
<polyline fill="none" stroke="#000000" points="192.922,14.01 192.922,14.01" />
<polyline fill="none" stroke="#000000" points="122.711,21.681 138.053,21.681 141.594,22.269 143.36,22.859" />
<polyline fill="none" stroke="#000000" points="120.945,22.269 120.945,22.269" />
<polyline fill="none" stroke="#000000" points="63.127,49.408 72.564,47.639 83.185,48.229 86.725,47.639 83.185,49.408 86.725,49.998 89.672,48.82" />
<polyline fill="none" stroke="#000000" points="80.235,48.82 83.775,49.998 88.494,48.229 90.856,47.045" />
<polyline fill="none" stroke="#000000" points="69.023,52.948 78.466,47.045 82.589,45.28 92.034,42.33 93.803,42.33" />
<polyline fill="none" stroke="#000000" points="71.386,54.129 85.541,49.998 89.085,49.408 90.266,49.408" />
<polyline fill="none" stroke="#000000" points="61.352,43.508 52.503,49.998 57.227,50.589 60.762,49.998 64.893,49.998 70.795,49.998" />
<polyline fill="none" stroke="#000000" points="61.352,52.948 77.282,48.229 85.541,45.87 90.266,44.098 93.803,43.508 94.391,42.92" />
<polyline fill="none" stroke="#000000" points="87.906,51.179 87.906,51.179" />
<polyline fill="none" stroke="#000000" points="87.906,51.179 83.775,52.357 87.316,49.998 92.034,48.229 95.575,46.458 102.062,43.508" />
<polyline fill="none" stroke="#000000" points="89.085,54.129 89.085,54.129" />
<polyline fill="none" stroke="#000000" points="211.156,127.63 216.189,131.499 219.671,134.984 221.995,136.145 224.314,136.532 226.635,136.145 229.349,136.145 231.671,134.984 235.156,131.499 235.93,129.178 237.09,126.856 237.474,124.532 237.474,121.824 238.251,119.499 239.415,117.178 239.799,116.791" />
<polyline fill="none" stroke="#000000" points="239.415,116.017 237.09,120.663 237.09,123.371 236.701,125.693 235.93,128.017 234.769,130.338 231.671,134.21 229.349,135.371 227.025,135.758 224.701,135.371 222.379,134.21 219.671,133.824 217.349,132.663 215.415,131.112 213.864,129.178 210.769,125.693" />
<polyline fill="none" stroke="#000000" points="212.314,123.371 214.251,128.017 214.641,130.338 215.415,131.112" />
<polyline fill="none" stroke="#000000" points="211.93,126.082 216.189,130.725 219.284,133.824" />
<polyline fill="none" stroke="#000000" points="211.54,124.532 213.09,129.565" />
<polyline fill="none" stroke="#000000" points="211.93,122.984 211.93,122.984" />
<polyline fill="none" stroke="#000000" points="218.12,131.112 223.156,133.05 228.189,134.21 230.12,134.597" />
<polyline fill="none" stroke="#000000" points="217.349,132.663 222.769,134.21 225.09,134.597 228.189,135.371" />
<polyline fill="none" stroke="#000000" points="220.055,134.597 225.474,135.758" />
<polyline fill="none" stroke="#000000" points="225.864,133.824 231.284,131.112 233.608,130.338 234.769,129.565" />
<polyline fill="none" stroke="#000000" points="228.576,133.437 234.769,131.112 235.93,131.112" />
<polyline fill="none" stroke="#000000" points="229.349,134.984 229.349,134.984" />
<polyline fill="none" stroke="#000000" points="228.96,134.984 233.215,129.952 237.09,125.693" />
<polyline fill="none" stroke="#000000" points="233.608,131.112 235.54,125.693 237.474,121.05 237.864,120.663" />
<polyline fill="none" stroke="#000000" points="232.445,130.338 234.769,125.693 235.156,123.371 236.314,121.05 237.09,118.725 238.638,115.63" />
<polyline fill="none" stroke="#000000" points="230.12,111.758 235.54,112.532 237.474,113.309" />
<polyline fill="none" stroke="#000000" points="232.445,112.145 237.864,115.63 239.415,117.178" />
<polyline fill="none" stroke="#000000" points="233.608,113.309 236.701,117.952 236.701,120.663 236.701,121.05" />
<polyline fill="none" stroke="#000000" points="235.54,114.082 238.251,118.338 237.09,120.663" />
<polyline fill="none" stroke="#000000" points="235.54,113.696 235.54,113.696" />
<polyline fill="none" stroke="#000000" points="129.48,103.63 124.061,104.404 122.123,105.952 119.802,107.115 118.257,109.05 115.933,113.309 115.159,114.856" />
<polyline fill="none" stroke="#000000" points="129.093,102.856 123.671,103.243 121.352,104.017 119.418,105.565 117.864,107.502 117.093,109.824 115.543,111.758 115.159,114.082 115.159,115.243" />
<polyline fill="none" stroke="#000000" points="124.061,103.243 117.093,107.502 115.933,109.824 115.159,112.145" />
<polyline fill="none" stroke="#000000" points="127.543,102.469 121.352,102.856 119.031,104.017 117.093,105.565 114.772,106.338 115.159,106.338" />
<polyline fill="none" stroke="#000000" points="119.802,104.017 115.159,109.05 115.159,111.371" />
<polyline fill="none" stroke="#000000" points="118.641,104.791 118.641,104.791" />
<polyline fill="none" stroke="#000000" points="113.998,108.663 117.093,104.017 118.641,103.63" />
<polyline fill="none" stroke="#000000" points="130.251,103.243 135.284,107.115 138.772,110.597 139.933,112.919 141.48,117.565 142.251,119.889 142.641,122.21 143.412,124.532 143.412,125.306" />
<polyline fill="none" stroke="#000000" points="132.962,104.404 137.998,108.663 139.543,110.597" />
<polyline fill="none" stroke="#000000" points="140.704,117.565 139.933,122.21 137.998,123.758 135.671,124.919 133.352,125.693 131.031,126.082 128.704,126.856 126.382,127.243 121.739,127.243 120.192,126.856" />
<polyline fill="none" stroke="#000000" points="141.093,119.889 136.447,124.532 134.123,125.693 131.802,126.082 129.48,126.856 124.837,128.017 123.284,128.404" />
<polyline fill="none" stroke="#000000" points="124.837,128.404 130.641,127.63 132.962,126.856 137.611,125.693 139.933,124.532 141.48,122.597 142.641,120.663" />
<polyline fill="none" stroke="#000000" points="142.251,121.824 137.221,126.082 134.9,126.856 130.251,128.017 125.611,129.178" />
<polyline fill="none" stroke="#000000" points="128.32,129.178 133.352,128.791 137.998,127.243 142.641,124.532 143.025,124.145" />
<polyline fill="none" stroke="#000000" points="142.251,120.663 139.933,125.306 137.611,125.693 136.061,126.082" />
<polyline fill="none" stroke="#000000" points="142.251,124.145 136.447,126.082" />
<polyline fill="none" stroke="#000000" points="141.864,121.05 141.864,121.05" />
<polyline fill="none" stroke="#000000" points="119.031,123.758 124.061,126.856 126.772,126.856 127.159,126.856" />
<polyline fill="none" stroke="#000000" points="127.159,127.243 120.962,124.919 119.418,122.984 118.641,120.663 117.093,113.309 116.32,111.371" />
<polyline fill="none" stroke="#000000" points="116.32,114.082 116.32,118.725 117.093,121.05 119.418,125.306 121.739,126.082 122.513,126.856" />
<polyline fill="none" stroke="#000000" points="122.123,127.63 116.704,122.984 115.933,120.663 115.543,118.338 115.543,115.63 115.933,114.082" />
<polyline fill="none" stroke="#000000" points="117.48,117.178 118.257,122.21 119.031,123.371" />
<polyline fill="none" stroke="#000000" points="117.48,123.758 117.48,123.758" />
<polyline fill="none" stroke="#000000" points="224.779,100.148 232.45,95.426 240.119,93.658 241.89,93.658" />
<polyline fill="none" stroke="#000000" points="234.81,96.017 243.069,95.426 246.609,93.658 248.968,90.708 249.559,90.117" />
<polyline fill="none" stroke="#000000" points="138.641,95.426 130.382,93.067 126.842,90.708 122.711,85.399" />
<polyline fill="none" stroke="#000000" points="134.513,96.608 124.485,89.527 120.945,87.167 117.405,85.986 114.452,83.627 110.911,83.037 110.321,83.627" />
<polyline fill="none" stroke="#000000" points="130.97,92.477 124.485,83.627 120.945,81.858 117.405,80.677 115.63,80.677" />
<polyline fill="none" stroke="#000000" points="126.842,86.577 116.814,82.449 113.861,82.449" />
<polyline fill="none" stroke="#000000" points="125.073,90.117 116.224,84.808 113.861,84.808" />
<polyline fill="none" stroke="#000000" points="130.382,94.836 119.17,87.167 115.63,86.577" />
<polyline fill="none" stroke="#000000" points="184.66,201.032 192.922,199.264 195.281,198.082" />
<polyline fill="none" stroke="#000000" points="176.989,205.163 187.022,202.213 191.156,201.623 194.688,201.032" />
<polyline fill="none" stroke="#000000" points="181.12,197.492 192.331,195.133 197.64,194.542" />
<polyline fill="none" stroke="#000000" points="180.529,193.364 190.562,191.005 194.688,191.005" />
<polyline fill="none" stroke="#000000" points="181.12,188.642 189.381,187.464 193.509,187.464 195.869,187.464" />
<polyline fill="none" stroke="#000000" points="182.298,183.333 190.562,182.743 196.462,182.743" />
<polyline fill="none" stroke="#000000" points="182.298,176.843 193.509,176.256 194.688,175.665" />
<polyline fill="none" stroke="#000000" points="182.891,172.125 194.103,168.584" />
<polyline fill="none" stroke="#000000" points="184.072,162.685 195.281,160.325 200.593,160.325" />
<polyline fill="none" stroke="#000000" points="187.022,166.816 196.462,163.866 200.002,163.275" />
<polyline fill="none" stroke="#000000" points="182.891,156.785 194.688,155.016 196.462,155.016" />
<polyline fill="none" stroke="#000000" points="184.66,150.295 192.922,149.704 197.05,149.114" />
<polyline fill="none" stroke="#000000" points="187.61,144.986 198.821,143.214 200.593,143.214" />
<polyline fill="none" stroke="#000000" points="186.432,139.086 198.821,139.677" />
<polyline fill="none" stroke="#000000" points="185.838,133.777 198.228,134.365 200.002,134.365" />
<polyline fill="none" stroke="#000000" points="188.194,129.646 198.228,129.646 200.593,130.237" />
<polyline fill="none" stroke="#000000" points="187.022,124.925 195.869,124.925 197.64,124.925" />
<polyline fill="none" stroke="#000000" points="187.61,119.616 195.869,120.206 204.125,121.975" />
<polyline fill="none" stroke="#000000" points="187.022,114.306 196.462,116.075 199.415,117.256" />
<polyline fill="none" stroke="#000000" points="187.61,108.407 197.05,110.176 202.362,111.357" />
<polyline fill="none" stroke="#000000" points="188.791,103.685 198.228,106.048 204.125,107.816" />
<polyline fill="none" stroke="#000000" points="189.969,98.376 199.415,99.557 201.181,100.148" />
<polyline fill="none" stroke="#000000" points="188.194,92.477 200.002,93.658 203.54,95.426" />
<polyline fill="none" stroke="#000000" points="188.791,88.349 197.64,89.527 206.487,90.708" />
<polyline fill="none" stroke="#000000" points="189.969,82.449 198.821,84.808 200.593,85.399" />
<polyline fill="none" stroke="#000000" points="190.562,79.496 200.593,83.037 202.362,83.627" />
<polyline fill="none" stroke="#000000" points="192.922,75.959 200.002,75.368 204.125,77.728 205.899,78.318" />
<polyline fill="none" stroke="#000000" points="205.899,151.476 214.752,150.295 219.47,149.114 231.86,145.576" />
<polyline fill="none" stroke="#000000" points="213.57,154.426 222.42,152.064 226.548,150.295 230.679,149.114 234.219,147.936" />
<polyline fill="none" stroke="#000000" points="216.523,160.325 228.32,157.376 233.041,155.016 237.169,153.245" />
<polyline fill="none" stroke="#000000" points="220.061,167.994 231.86,161.504 235.397,159.735" />
<polyline fill="none" stroke="#000000" points="218.877,156.194 229.501,152.654 231.86,152.064" />
<polyline fill="none" stroke="#000000" points="235.991,153.835 247.79,146.754 251.328,143.805" />
<polyline fill="none" stroke="#000000" points="234.81,146.754 245.428,139.677 251.328,134.955" />
<polyline fill="none" stroke="#000000" points="232.45,156.194 243.069,149.704 244.84,148.526" />
<polyline fill="none" stroke="#000000" points="220.061,165.044 233.041,158.554 237.169,157.376 239.531,156.785" />
<polyline fill="none" stroke="#000000" points="221.242,173.893 232.45,168.584 235.991,166.225" />
<polyline fill="none" stroke="#000000" points="206.487,185.105 214.752,182.743 218.877,180.974" />
<polyline fill="none" stroke="#000000" points="200.593,191.592 200.593,191.592" />
<polyline fill="none" stroke="#000000" points="124.485,144.395 133.335,149.704 137.463,150.885" />
<polyline fill="none" stroke="#000000" points="120.354,153.245 134.513,158.554 136.285,159.735" />
<polyline fill="none" stroke="#000000" points="120.354,164.453 132.744,171.534 135.101,172.125" />
<polyline fill="none" stroke="#000000" points="128.613,178.615 136.872,181.565 141.003,182.743" />
<polyline fill="none" stroke="#000000" points="135.101,188.642 142.772,191.592" />
<polyline fill="none" stroke="#000000" points="129.204,176.256 139.232,179.205" />
<polyline fill="none" stroke="#000000" points="135.691,186.874 135.691,186.874" />
<polyline fill="none" stroke="#000000" points="130.97,168.584 141.594,173.893 143.36,175.074" />
<polyline fill="none" stroke="#000000" points="134.513,160.916 143.95,167.403 147.49,168.584" />
<polyline fill="none" stroke="#000000" points="136.285,148.526 146.312,154.426" />
<polyline fill="none" stroke="#000000" points="140.41,143.805 151.621,149.704" />
<polyline fill="none" stroke="#000000" points="139.819,140.855 148.081,144.395 151.621,144.986" />
<polyline fill="none" stroke="#000000" points="142.184,137.905 149.853,140.264 153.393,140.855 153.984,141.445" />
<polyline fill="none" stroke="#000000" points="143.95,134.365 152.8,137.314 153.393,137.905" />
<polyline fill="none" stroke="#000000" points="145.725,133.186 145.725,133.186" />
<polyline fill="none" stroke="#000000" points="148.081,133.777 155.749,137.314 156.933,137.314" />
<polyline fill="none" stroke="#000000" points="185.838,83.627 183.485,90.117 180.529,92.477 184.072,93.658 180.529,94.248 184.66,95.426 188.194,94.836 183.485,94.836 181.12,97.786 184.66,99.557 181.12,98.967 184.66,101.326 181.12,101.917 184.072,104.276 179.941,104.276 183.485,105.457 179.351,106.048 182.891,107.816 179.351,108.407 183.485,110.176 179.351,111.357 182.891,113.125 179.351,113.716 182.891,115.488 178.763,115.488 181.713,118.437 177.579,119.025 181.12,121.387 176.989,121.975 181.12,123.156 177.579,123.746 181.12,124.925 177.579,126.106 181.12,127.874 184.66,127.287 180.529,127.287 183.485,129.646 178.763,129.646 182.298,131.415 178.763,132.005 182.298,133.777 178.173,134.365 181.12,137.314 177.579,137.905 181.12,140.264 176.989,140.855 181.713,142.626 178.173,143.214 181.12,145.576 177.579,146.164 181.12,148.526 176.989,148.526 179.941,150.885 183.485,150.295 178.763,150.885 182.298,152.654 178.173,153.245 181.12,155.604 177.579,156.194 180.529,158.554 176.989,159.735 179.941,162.094 176.989,164.453 181.12,165.044 176.989,165.044 179.941,167.403 183.485,166.816 179.351,167.403 175.81,168.584 179.941,170.353 176.398,172.125 179.941,173.893 176.398,175.074 180.529,176.256 176.989,177.434 179.941,179.793 175.81,180.974 178.763,183.333 175.223,184.514 178.173,186.874 174.632,187.464 178.763,188.642 174.632,189.821 176.989,192.773 172.861,193.364 176.398,195.133 172.861,196.314 172.861,199.264 176.398,198.673 172.27,198.673 175.223,201.032 171.68,200.445 174.632,202.804 178.173,203.394 174.042,203.394 170.501,205.163 174.042,206.344" />
<polyline fill="none" stroke="#000000" points="153.393,129.056 153.984,135.546 150.443,134.955 153.393,137.314 148.674,137.314 151.621,140.264 147.49,140.855 144.544,143.214 148.081,144.395 144.544,144.986 147.49,147.936 143.36,149.114 146.312,151.476 142.772,152.654 146.312,153.835 142.772,155.016 146.312,156.194 142.772,157.376 145.725,160.325 141.594,162.094 145.134,163.866 142.184,166.225 144.544,169.175 141.003,170.944 143.95,173.303 141.003,176.256 144.544,178.615 141.594,181.565 145.134,183.333 142.184,185.693 145.134,188.055 142.184,190.414 145.134,192.773 141.003,193.364 144.544,195.133 140.41,196.314 144.544,198.082 140.41,198.673 143.95,199.264 143.36,201.623" />
<polyline fill="none" stroke="#000000" points="203.54,160.325 203.54,160.325" />
<polyline fill="none" stroke="#000000" points="203.54,160.325 200.002,153.245 203.54,153.835 201.181,156.785 204.718,157.376 201.768,161.504 202.362,165.044 206.487,165.044 206.487,165.044 202.952,166.816 200.002,169.175 204.718,170.353 210.03,170.353 205.899,170.944 201.768,173.303 203.54,176.843 207.671,176.843 203.54,178.615 205.899,181.565 202.362,183.333 198.821,185.693 203.54,186.874 207.671,185.693 203.54,186.283 200.593,188.642 204.718,189.821 201.181,192.183 197.64,193.954 201.181,195.133 204.718,194.542 200.002,195.133 197.64,198.673 198.821,203.394 195.869,203.394" />
<polyline fill="none" stroke="#000000" points="204.125,132.596 212.392,132.596 207.671,132.005 203.54,132.596 207.08,134.365 203.54,136.136 207.08,137.314 202.952,137.905 207.08,139.086 202.362,139.086 205.899,141.445 210.03,141.445 205.899,140.855 201.768,142.036 204.718,144.986 208.852,144.986 204.718,145.576 207.671,147.936 203.54,149.114 200.593,151.476 204.125,152.654 208.264,152.654 204.718,153.835 201.768,156.194 205.311,157.376 210.03,157.376 206.487,159.735 208.852,162.685 207.671,166.225 205.311,167.994" />
<polyline fill="none" stroke="#000000" points="179.714,228.357 182.298,223.197 184.445,221.477 186.167,219.325 188.747,218.036 191.327,216.314 192.619,215.025" />
<polyline fill="none" stroke="#000000" points="191.327,217.175 184.878,223.197 183.156,225.346 178.426,230.507" />
<polyline fill="none" stroke="#000000" points="189.605,219.755 185.736,224.916 181.864,228.788 180.142,229.218" />
<polyline fill="none" stroke="#000000" points="188.314,218.894 182.298,224.916 181.437,227.066" />
<polyline fill="none" stroke="#000000" points="146.597,212.014 149.608,217.175 151.758,218.894 153.05,221.477 155.197,223.197 159.072,227.066 161.221,228.788 162.513,229.218" />
<polyline fill="none" stroke="#000000" points="147.889,212.445 153.48,215.025 156.061,215.886 158.208,217.605 159.933,219.755 161.221,222.335 161.652,224.916 162.513,227.496 161.652,227.927" />
<polyline fill="none" stroke="#000000" points="162.079,227.927 156.061,223.627 153.48,221.905 151.758,219.755 149.178,215.025 148.32,213.303" />
<polyline fill="none" stroke="#000000" points="149.178,213.303 155.197,218.466 156.488,221.047 158.208,223.627 162.079,227.066" />
<polyline fill="none" stroke="#000000" points="150.469,215.025 154.338,220.616 157.352,223.197" />
<polyline fill="none" stroke="#000000" points="153.48,216.314 159.499,221.477 161.221,224.058 161.221,226.208" />
<polyline fill="none" stroke="#000000" points="151.328,212.875 157.352,214.594 159.072,216.744 161.221,220.616" />
<polyline fill="none" stroke="#000000" points="153.908,215.025 159.072,220.186 159.072,223.197 160.363,225.777 160.788,226.208" />
<polyline fill="none" stroke="#000000" points="148.747,208.142 148.747,208.142" />
<polyline fill="none" stroke="#000000" points="152.189,208.142 152.189,208.142" />
<polyline fill="none" stroke="#000000" points="154.772,210.722 154.772,210.722" />
<polyline fill="none" stroke="#000000" points="157.777,208.573 157.777,208.573" />
<polyline fill="none" stroke="#000000" points="155.63,207.284 155.63,207.284" />
<polyline fill="none" stroke="#000000" points="148.32,206.423 148.32,206.423" />
<polyline fill="none" stroke="#000000" points="159.499,211.153 159.499,211.153" />
<polyline fill="none" stroke="#000000" points="163.368,209.864 163.368,209.864" />
<polyline fill="none" stroke="#000000" points="162.079,212.875 162.079,212.875" />
<polyline fill="none" stroke="#000000" points="163.368,216.314 163.368,216.314" />
<polyline fill="none" stroke="#000000" points="166.382,214.594 166.382,214.594" />
<polyline fill="none" stroke="#000000" points="165.952,211.584 165.952,211.584" />
<polyline fill="none" stroke="#000000" points="171.973,211.584 171.973,211.584" />
<polyline fill="none" stroke="#000000" points="170.251,213.733 170.251,213.733" />
<polyline fill="none" stroke="#000000" points="176.704,212.445 176.704,212.445" />
<polyline fill="none" stroke="#000000" points="174.123,215.025 174.123,215.025" />
<polyline fill="none" stroke="#000000" points="180.142,211.153 180.142,211.153" />
<polyline fill="none" stroke="#000000" points="179.284,214.594 179.284,214.594" />
<polyline fill="none" stroke="#000000" points="184.878,209.434 184.878,209.434" />
<polyline fill="none" stroke="#000000" points="183.586,212.445 183.586,212.445" />
<polyline fill="none" stroke="#000000" points="188.747,207.712 188.747,207.712" />
<polyline fill="none" stroke="#000000" points="193.48,206.423 193.48,206.423" />
<polyline fill="none" stroke="#000000" points="192.619,209.434 192.619,209.434" />
<polyline fill="none" stroke="#000000" points="188.747,211.584 188.747,211.584" />
<polyline fill="none" stroke="#000000" points="186.167,214.594 186.167,214.594" />
<polyline fill="none" stroke="#000000" points="181.864,216.744 181.864,216.744" />
<polyline fill="none" stroke="#000000" points="176.276,218.466 176.276,218.466" />
<polyline fill="none" stroke="#000000" points="171.543,218.036 171.543,218.036" />
<polyline fill="none" stroke="#000000" points="168.535,217.175 168.535,217.175" />
<polyline fill="none" stroke="#000000" points="165.952,220.616 165.952,220.616" />
<polyline fill="none" stroke="#000000" points="170.685,221.047 170.685,221.047" />
<polyline fill="none" stroke="#000000" points="175.845,222.335 175.845,222.335" />
<polyline fill="none" stroke="#000000" points="180.142,219.755 180.142,219.755" />
<polyline fill="none" stroke="#000000" points="174.123,220.616 174.123,220.616" />
<polyline fill="none" stroke="#000000" points="173.265,225.346 173.265,225.346" />
<polyline fill="none" stroke="#000000" points="177.134,225.346 177.134,225.346" />
<polyline fill="none" stroke="#000000" points="173.265,229.649 173.265,229.649" />
<polyline fill="none" stroke="#000000" points="176.276,227.496 176.276,227.496" />
<polyline fill="none" stroke="#000000" points="170.251,233.088 170.251,233.088" />
<polyline fill="none" stroke="#000000" points="174.981,230.938 174.981,230.938" />
<polyline fill="none" stroke="#000000" points="167.671,232.657 167.671,232.657" />
<polyline fill="none" stroke="#000000" points="169.821,229.649 169.821,229.649" />
<polyline fill="none" stroke="#000000" points="165.524,228.788 165.524,228.788" />
<polyline fill="none" stroke="#000000" points="170.251,224.916 170.251,224.916" />
<polyline fill="none" stroke="#000000" points="168.535,226.638 168.535,226.638" />
<polyline fill="none" stroke="#000000" points="166.813,222.766 166.813,222.766" />
<polyline fill="none" stroke="#000000" points="178.856,209.864 178.856,209.864" />
<polyline fill="none" stroke="#000000" points="183.586,208.573 183.586,208.573" />
<polyline fill="none" stroke="#000000" points="187.886,206.853 187.886,206.853" />
<polyline fill="none" stroke="#000000" points="191.327,204.704 191.327,204.704" />
<polyline fill="none" stroke="#000000" points="195.2,205.131 195.2,205.131" />
<polyline fill="none" stroke="#000000" points="192.186,209.003 192.186,209.003" />
<polyline fill="none" stroke="#000000" points="187.886,210.295 187.886,210.295" />
<polyline fill="none" stroke="#000000" points="190.9,212.014 190.9,212.014" />
<polyline fill="none" stroke="#000000" points="183.156,215.886 183.156,215.886" />
<polyline fill="none" stroke="#000000" points="186.597,212.445 186.597,212.445" />
<polyline fill="none" stroke="#000000" points="188.747,213.733 188.747,213.733" />
<polyline fill="none" stroke="#000000" points="182.298,213.733 182.298,213.733" />
<polyline fill="none" stroke="#000000" points="186.597,207.284 186.597,207.284" />
<polyline fill="none" stroke="#000000" points="191.755,209.434 191.755,209.434" />
<polyline fill="none" stroke="#000000" points="190.9,207.284 190.9,207.284" />
<polyline fill="none" stroke="#000000" points="196.061,208.142 196.061,208.142" />
<polyline fill="none" stroke="#000000" points="193.908,211.584 193.908,211.584" />
<polyline fill="none" stroke="#000000" points="194.769,208.573 194.769,208.573" />
<polyline fill="none" stroke="#000000" points="181.006,211.584 181.006,211.584" />
<polyline fill="none" stroke="#000000" points="182.722,209.003 182.722,209.003" />
<polyline fill="none" stroke="#000000" points="180.142,215.886 180.142,215.886" />
<polyline fill="none" stroke="#000000" points="177.134,217.605 177.134,217.605" />
<polyline fill="none" stroke="#000000" points="181.437,216.744 181.437,216.744" />
<polyline fill="none" stroke="#000000" points="177.992,222.335 177.992,222.335" />
<polyline fill="none" stroke="#000000" points="179.714,218.466 179.714,218.466" />
<polyline fill="none" stroke="#000000" points="125.378,251.584 124.424,257.317 123.47,266.397 122.987,263.051 123.47,260.186 124.424,257.317 124.901,254.449 125.378,251.584" />
<polyline fill="none" stroke="#000000" points="126.815,249.672 125.856,255.406 124.901,258.272 124.901,261.617 124.424,264.485 123.47,274.042 122.987,276.91" />
<polyline fill="none" stroke="#000000" points="198.016,255.883 200.887,260.663 200.887,264.008 200.887,264.962" />
<polyline fill="none" stroke="#000000" points="199.45,254.929 199.93,260.663 199.93,264.485 199.93,267.831 199.45,270.699 199.45,274.042 198.973,276.91 200.887,274.522 201.364,271.176 202.324,267.831 202.324,264.485 201.838,261.617 200.41,255.883 199.93,253.015 199.45,255.883 199.93,259.706 200.41,267.354 199.93,274.042 198.016,282.644 198.016,283.601" />
<polyline fill="none" stroke="#000000" points="167.912,248.715 166.001,253.972 168.389,255.883 166.001,258.272 166.478,261.14 164.087,263.528 166.952,264.008 164.564,265.92 167.432,266.397 164.564,267.831 163.613,270.699 166.478,271.176 163.133,272.13 162.176,274.999 165.041,275.476 162.653,277.387 165.524,277.867 163.133,279.778 163.613,282.644 164.087,283.124" />
<polyline fill="none" stroke="#000000" points="147.842,284.078 141.629,279.778 139.714,277.387 139.714,280.733 140.192,283.124" />
<polyline fill="none" stroke="#000000" points="139.24,279.778 140.192,274.042 140.192,273.565" />
<polyline fill="none" stroke="#000000" points="176.034,284.078 181.291,278.344 182.722,275.476 184.64,272.61" />
<polyline fill="none" stroke="#000000" points="179.86,282.644 184.16,276.433 184.64,274.042" />
<polyline fill="none" stroke="#000000" points="141.152,281.69 138.283,275.956 137.803,273.087 138.283,271.653" />
<polyline fill="none" stroke="#000000" points="138.283,266.397 139.24,272.61 141.152,274.999 142.583,277.867 144.494,280.256 146.885,283.601" />
<polyline fill="none" stroke="#000000" points="139.24,274.999 143.063,280.733 144.017,282.167" />
<polyline fill="none" stroke="#000000" points="191.327,253.495 192.285,258.752 192.285,262.097 191.805,268.308 190.376,274.042 189.413,277.387" />
<polyline fill="none" stroke="#000000" points="189.896,253.972 189.896,259.706 188.939,262.574 188.939,265.92 188.939,272.61 188.939,273.087" />
<polyline fill="none" stroke="#000000" points="190.376,256.36 190.376,263.051 190.376,266.397 189.896,269.265 189.896,271.176" />
<polyline fill="none" stroke="#000000" points="137.803,250.149 136.849,255.883 136.849,261.617 136.849,262.574" />
<polyline fill="none" stroke="#000000" points="129.681,250.626 127.767,256.36 126.336,262.097 126.336,265.442 126.815,268.785 126.815,272.13 126.815,274.522" />
<polyline fill="none" stroke="#000000" points="132.069,250.626 130.638,257.317 130.638,260.663 130.158,263.528 130.638,266.397 130.638,269.742 130.158,272.61 130.158,275.956" />
<polyline fill="none" stroke="#000000" points="195.627,254.449 195.627,260.186 195.156,263.051 193.233,271.653 192.762,274.522 191.805,277.387 189.413,283.601" />
<polyline fill="none" stroke="#000000" points="199.45,256.36 199.93,262.097 198.973,265.442 196.584,271.176 196.107,274.042 195.156,276.91 193.719,279.778 193.233,281.69" />
<polyline fill="none" stroke="#000000" points="193.233,25.544 199.93,25.544 201.364,25.544" />
<polyline fill="none" stroke="#000000" points="195.156,28.413 195.156,28.413" />
<polyline fill="none" stroke="#000000" points="195.156,28.413 198.016,28.89 201.838,28.89 206.618,29.367" />
<polyline fill="none" stroke="#000000" points="195.627,20.288 209.489,20.765" />
<polyline fill="none" stroke="#000000" points="204.232,15.988 218.091,17.419 220.002,17.899" />
<polyline fill="none" stroke="#000000" points="214.263,21.722 214.263,21.722" />
<polyline fill="none" stroke="#000000" points="214.263,21.722 210.92,24.11 215.223,24.11 219.045,25.067 221.437,26.021" />
<polyline fill="none" stroke="#000000" points="211.877,27.456 220.002,28.413" />
<polyline fill="none" stroke="#000000" points="226.21,28.89 232.904,32.712 233.861,33.189" />
<polyline fill="none" stroke="#000000" points="219.522,31.278 226.21,32.712 228.605,33.669" />
<polyline fill="none" stroke="#000000" points="234.813,37.969 243.418,42.269" />
<polyline fill="none" stroke="#000000" points="236.25,45.614 243.418,49.917" />
<polyline fill="none" stroke="#000000" points="173.169,37.492 180.814,38.446 184.16,39.403 180.814,39.403 180.814,40.357 177.466,42.269 174.123,42.269 176.989,43.703 180.337,44.183 176.512,44.66 176.034,47.045 179.38,47.525 175.08,47.525 176.034,50.871 178.903,51.351 175.08,51.351 172.209,51.828 173.169,53.262" />
<polyline fill="none" stroke="#000000" points="241.506,55.65 248.197,58.996 249.152,59.953" />
<polyline fill="none" stroke="#000000" points="241.029,63.296 249.631,68.075 250.583,69.032" />
<polyline fill="none" stroke="#000000" points="241.981,69.986 249.152,73.332 252.02,74.289 252.974,75.243" />
<polyline fill="none" stroke="#000000" points="240.072,76.677 249.152,79.546 252.02,80.98 253.931,82.411" />
<polyline fill="none" stroke="#000000" points="230.033,70.944 240.549,74.766" />
<polyline fill="none" stroke="#000000" points="221.437,54.216 230.99,58.519 233.381,59.473" />
<polyline fill="none" stroke="#000000" points="212.834,46.571 225.259,51.828 226.21,52.305" />
<polyline fill="none" stroke="#000000" points="231.47,54.216 240.072,58.039" />
<polyline fill="none" stroke="#000000" points="202.324,45.614 210.92,48.482 211.877,49.44" />
<polyline fill="none" stroke="#000000" points="192.762,41.314 202.795,43.703 204.232,44.66" />
<polyline fill="none" stroke="#000000" points="242.938,31.755 250.583,31.755 253.454,33.189 256.32,35.101 257.277,36.058" />
<polyline fill="none" stroke="#000000" points="255.365,37.492 264.922,38.926 267.31,39.88" />
<polyline fill="none" stroke="#000000" points="252.02,29.844 261.573,31.278 263.488,32.235" />
<polyline fill="none" stroke="#000000" points="231.47,78.589 238.638,82.411 240.072,82.891" />
<polyline fill="none" stroke="#000000" points="224.302,80.023 232.904,82.891 233.861,83.368" />
<polyline fill="none" stroke="#000000" points="206.618,86.714 213.311,87.191 216.18,88.148 217.614,88.625" />
<polyline fill="none" stroke="#000000" points="204.232,90.536 211.397,92.448 216.18,94.836" />
<polyline fill="none" stroke="#000000" points="204.232,98.181 211.877,102.004" />
<polyline fill="none" stroke="#000000" points="206.141,106.784 213.311,108.695 215.7,109.652" />
<polyline fill="none" stroke="#000000" points="204.709,114.909 204.709,114.909" />
<polyline fill="none" stroke="#000000" points="227.173,89.102 227.173,89.102" />
<polyline fill="none" stroke="#000000" points="223.345,89.579 234.341,89.579 237.204,89.579" />
<polyline fill="none" stroke="#000000" points="240.549,87.668 240.549,87.668" />
<polyline fill="none" stroke="#000000" points="230.033,101.527 241.981,97.704 244.375,97.227" />
<polyline fill="none" stroke="#000000" points="250.583,92.448 260.145,89.579 262.056,89.579" />
<polyline fill="none" stroke="#000000" points="260.145,93.882 271.61,95.316 273.527,96.747" />
<polyline fill="none" stroke="#000000" points="260.145,101.05 268.267,102.004 270.658,103.438" />
<polyline fill="none" stroke="#000000" points="263.488,108.695 271.61,111.086 272.57,111.563" />
<polyline fill="none" stroke="#000000" points="266.83,84.802 274.955,90.536" />
<polyline fill="none" stroke="#000000" points="276.392,100.573 285.474,106.306" />
<polyline fill="none" stroke="#000000" points="276.392,110.129 284.994,112.997 286.426,113.474" />
<polyline fill="none" stroke="#000000" points="280.215,120.165 287.86,122.077 289.771,123.031" />
<polyline fill="none" stroke="#000000" points="278.306,131.156 285.952,134.024" />
<polyline fill="none" stroke="#000000" points="275.918,137.37 282.6,140.235 283.557,141.192" />
<polyline fill="none" stroke="#000000" points="275.918,144.538 283.557,147.403" />
<polyline fill="none" stroke="#000000" points="272.57,153.617 279.261,156.005 281.172,156.005" />
<polyline fill="none" stroke="#000000" points="267.79,161.742 273.998,163.653 277.829,165.565 278.784,166.519" />
<polyline fill="none" stroke="#000000" points="267.79,169.387 275.435,171.298 279.738,173.21" />
<polyline fill="none" stroke="#000000" points="263.968,177.989 263.968,177.989" />
<polyline fill="none" stroke="#000000" points="245.803,208.573 254.411,211.441" />
<polyline fill="none" stroke="#000000" points="258.228,198.059 268.744,200.928" />
<polyline fill="none" stroke="#000000" points="145.134,94.248 149.262,103.685 151.031,108.997" />
<polyline fill="none" stroke="#000000" points="136.872,89.527 145.134,92.477 146.903,93.067" />
<polyline fill="none" stroke="#000000" points="134.513,83.037 143.95,87.758" />
<polyline fill="none" stroke="#000000" points="142.772,81.858 153.393,79.496 157.524,77.728 159.88,77.137" />
<polyline fill="none" stroke="#000000" points="140.41,74.778 150.443,71.237" />
<polyline fill="none" stroke="#000000" points="117.405,77.728 127.435,76.546" />
<polyline fill="none" stroke="#000000" points="153.984,108.407 158.702,115.488 160.471,119.025" />
<polyline fill="none" stroke="#000000" points="153.393,119.616 158.702,126.106 159.293,127.287" />
<polyline fill="none" stroke="#000000" points="151.621,128.465 155.162,137.314" />
<polyline fill="none" stroke="#000000" points="148.081,108.997 151.621,116.666 152.8,120.797" />
<polyline fill="none" stroke="#000000" points="148.081,119.616 152.209,127.287 153.393,130.827" />
<polyline fill="none" stroke="#000000" points="142.772,101.917 149.853,108.997 151.621,111.357" />
<polyline fill="none" stroke="#000000" points="143.95,98.967 149.262,105.457 151.031,108.997" />
<polyline fill="none" stroke="#000000" points="150.443,119.025 150.443,119.025" />
<polyline fill="none" stroke="#000000" points="233.631,103.098 233.631,103.098" />
<polyline fill="none" stroke="#000000" points="235.991,101.917 244.84,104.866 245.428,105.457" />
<polyline fill="none" stroke="#000000" points="235.991,105.457 245.428,106.048 249.559,108.997" />
<polyline fill="none" stroke="#000000" points="243.656,110.766 251.918,111.947 253.687,113.716" />
<polyline fill="none" stroke="#000000" points="244.25,110.176 251.328,110.176 254.28,111.357" />
</g>

</svg>